<svg width="20" height="20" viewBox="0 0 20 20" fill="none" xmlns="http://www.w3.org/2000/svg">
<path d="M10.0013 13.3333V17.5M15.0013 17.5L11.7085 14.756C11.1011 14.2499 10.7975 13.9968 10.4585 13.9001C10.1597 13.8149 9.84293 13.8149 9.54408 13.9001C9.20512 13.9968 8.90146 14.2499 8.29415 14.756L5.0013 17.5M6.66797 9.16667V10M10.0013 7.5V10M13.3346 5.83333V10M18.3346 2.5H1.66797M2.5013 2.5H17.5013V9.33333C17.5013 10.7335 17.5013 11.4335 17.2288 11.9683C16.9891 12.4387 16.6067 12.8212 16.1363 13.0608C15.6015 13.3333 14.9014 13.3333 13.5013 13.3333H6.5013C5.10117 13.3333 4.40111 13.3333 3.86633 13.0608C3.39592 12.8212 3.01347 12.4387 2.77379 11.9683C2.5013 11.4335 2.5013 10.7335 2.5013 9.33333V2.5Z" stroke="white" stroke-width="2" stroke-linecap="round" stroke-linejoin="round"/>
</svg>
