<svg width="24" height="24" fill="none" xmlns="http://www.w3.org/2000/svg"><path d="M10.001 13.333V17.5m5 0l-3.292-2.744c-.608-.506-.912-.76-1.25-.856a1.668 1.668 0 00-.915 0c-.339.097-.643.35-1.25.856L5.001 17.5m1.667-8.333V10m3.333-2.5V10m3.334-4.167V10m5-7.5H1.668m.833 0h15v6.833c0 1.4 0 2.1-.272 2.635a2.5 2.5 0 01-1.093 1.093c-.534.272-1.235.272-2.635.272h-7c-1.4 0-2.1 0-2.635-.272a2.5 2.5 0 01-1.092-1.093C2.5 11.434 2.5 10.733 2.5 9.333V2.5z"     stroke="currentColor"
              strokeOpacity="currentOpacity"
              strokeWidth="1.2"
              strokeLinecap="round"
              strokeLinejoin="round"
            />
          </svg>