<svg width="56" height="56" viewBox="0 0 56 56" fill="none" xmlns="http://www.w3.org/2000/svg">
<path d="M0 16C0 7.16344 7.16344 0 16 0H40C48.8366 0 56 7.16344 56 16V40C56 48.8366 48.8366 56 40 56H16C7.16344 56 0 48.8366 0 40V16Z" fill="#0052FF"/>
<path fill-rule="evenodd" clip-rule="evenodd" d="M14 28C14 35.7333 20.2667 42 28 42C35.7333 42 42 35.7333 42 28C42 20.2667 35.7333 14 28 14C20.2667 14 14 20.2667 14 28ZM24.4267 23.4844C23.9111 23.4844 23.4933 23.9022 23.4933 24.4178V31.5733C23.4933 32.0889 23.9111 32.5067 24.4267 32.5067H31.5822C32.0978 32.5067 32.5156 32.0889 32.5156 31.5733V24.4178C32.5156 23.9022 32.0978 23.4844 31.5822 23.4844H24.4267Z" fill="white"/>
</svg>
