<svg width="56" height="56" viewBox="0 0 56 56" fill="none" xmlns="http://www.w3.org/2000/svg">
<path d="M0 16C0 7.16344 7.16344 0 16 0H40C48.8366 0 56 7.16344 56 16V40C56 48.8366 48.8366 56 40 56H16C7.16344 56 0 48.8366 0 40V16Z" fill="#0094FF"/>
<path d="M18.5549 22.7139C23.7684 17.762 32.2316 17.762 37.4451 22.7139L38.0728 23.3144C38.336 23.5605 38.336 23.9641 38.0728 24.2102L35.9266 26.2481C35.795 26.376 35.5824 26.376 35.4508 26.2481L34.5903 25.431C30.9459 21.9755 25.0541 21.9755 21.4097 25.431L20.4885 26.3071C20.3568 26.4351 20.1443 26.4351 20.0127 26.3071L17.8665 24.2693C17.6033 24.0232 17.6033 23.6196 17.8665 23.3734L18.5549 22.7139ZM41.8893 26.9273L43.8026 28.7387C44.0658 28.9848 44.0658 29.3885 43.8026 29.6346L35.1876 37.8154C34.9244 38.0615 34.4992 38.0615 34.2461 37.8154L28.1316 32.0071C28.0709 31.9481 27.9595 31.9481 27.8988 32.0071L21.7842 37.8154C21.521 38.0615 21.0959 38.0615 20.8428 37.8154L12.1974 29.6346C11.9342 29.3885 11.9342 28.9848 12.1974 28.7387L14.1107 26.9273C14.3739 26.6812 14.7991 26.6812 15.0522 26.9273L21.1667 32.7356C21.2275 32.7947 21.3388 32.7947 21.3996 32.7356L27.5141 26.9273C27.7773 26.6812 28.2025 26.6812 28.4556 26.9273L34.5701 32.7356C34.6308 32.7947 34.7422 32.7947 34.8029 32.7356L40.9174 26.9273C41.2009 26.6812 41.6261 26.6812 41.8893 26.9273Z" fill="white"/>
</svg>
