<svg width="20" height="20" fill="none" xmlns="http://www.w3.org/2000/svg">
    <g clip-path="url(#prefix__clip0_651_79)">
        <path
            d="M4.164 12.5c-.777 0-1.165 0-1.471-.127a1.667 1.667 0 01-.902-.902c-.127-.306-.127-.695-.127-1.471V4.333c0-.933 0-1.4.182-1.756.16-.314.414-.569.728-.729.357-.181.823-.181 1.757-.181h5.666c.777 0 1.165 0 1.472.126.408.17.732.494.902.902.126.307.126.695.126 1.472m-2.333 14.166h5.5c.934 0 1.4 0 1.757-.181.313-.16.568-.415.728-.729.182-.356.182-.823.182-1.756v-5.5c0-.934 0-1.4-.182-1.757a1.667 1.667 0 00-.728-.729c-.357-.181-.823-.181-1.757-.181h-5.5c-.933 0-1.4 0-1.757.181-.313.16-.568.415-.728.729-.182.356-.182.823-.182 1.756v5.5c0 .934 0 1.4.182 1.757.16.314.415.569.728.729.357.181.824.181 1.757.181z"
            stroke="currentColor" stroke-opacity=".48" stroke-width="1.4" stroke-linecap="round"
            stroke-linejoin="round" />
    </g>
    <defs>
        <clipPath id="prefix__clip0_651_79">
            <path fill="transparent" d="M0 0h20v20H0z" />
        </clipPath>
    </defs>
</svg>