<svg width="20" height="20" viewBox="0 0 20 20" fill="none" xmlns="http://www.w3.org/2000/svg">
<g clip-path="url(#clip0_651_79)">
<path d="M4.16406 12.4998C3.38749 12.4998 2.99921 12.4998 2.69292 12.373C2.28454 12.2038 1.96009 11.8794 1.79093 11.471C1.66406 11.1647 1.66406 10.7764 1.66406 9.99984V4.33317C1.66406 3.39975 1.66406 2.93304 1.84572 2.57652C2.00551 2.26292 2.26047 2.00795 2.57408 1.84816C2.9306 1.6665 3.39731 1.6665 4.33073 1.6665H9.9974C10.774 1.6665 11.1622 1.6665 11.4685 1.79337C11.8769 1.96253 12.2014 2.28698 12.3705 2.69536C12.4974 3.00165 12.4974 3.38993 12.4974 4.1665M10.1641 18.3332H15.6641C16.5975 18.3332 17.0642 18.3332 17.4207 18.1515C17.7343 17.9917 17.9893 17.7368 18.1491 17.4232C18.3307 17.0666 18.3307 16.5999 18.3307 15.6665V10.1665C18.3307 9.23308 18.3307 8.76637 18.1491 8.40985C17.9893 8.09625 17.7343 7.84128 17.4207 7.68149C17.0642 7.49984 16.5975 7.49984 15.6641 7.49984H10.1641C9.23064 7.49984 8.76393 7.49984 8.40741 7.68149C8.09381 7.84128 7.83884 8.09625 7.67905 8.40985C7.4974 8.76637 7.4974 9.23308 7.4974 10.1665V15.6665C7.4974 16.5999 7.4974 17.0666 7.67905 17.4232C7.83884 17.7368 8.09381 17.9917 8.40741 18.1515C8.76393 18.3332 9.23064 18.3332 10.1641 18.3332Z" stroke="black" stroke-opacity="0.48" stroke-width="1.4" stroke-linecap="round" stroke-linejoin="round"/>
</g>
<defs>
<clipPath id="clip0_651_79">
<rect width="20" height="20" fill="white"/>
</clipPath>
</defs>
</svg>
