<svg width="56" height="56" viewBox="0 0 56 56" fill="none" xmlns="http://www.w3.org/2000/svg">
<path d="M0 16C0 7.16344 7.16344 0 16 0H40C48.8366 0 56 7.16344 56 16V40C56 48.8366 48.8366 56 40 56H16C7.16344 56 0 48.8366 0 40V16Z" fill="white"/>
<path d="M41.6957 13.2344L29.8281 22.0486L32.0227 16.8483L41.6957 13.2344Z" fill="#E2761B" stroke="#E2761B" stroke-linecap="round" stroke-linejoin="round"/>
<path d="M14.2992 13.2344L26.0714 22.1321L23.9841 16.8483L14.2992 13.2344ZM37.426 33.6656L34.2653 38.5081L41.028 40.3687L42.9722 33.773L37.426 33.6656ZM13.0469 33.773L14.9791 40.3687L21.7418 38.5081L18.5811 33.6656L13.0469 33.773Z" fill="#E4761B" stroke="#E4761B" stroke-linecap="round" stroke-linejoin="round"/>
<path d="M21.3532 25.4837L19.4688 28.3343L26.1838 28.6324L25.9452 21.4165L21.3532 25.4837ZM34.6282 25.4837L29.9766 21.333L29.8215 28.6324L36.5246 28.3343L34.6282 25.4837ZM21.7349 38.5081L25.7663 36.5402L22.2836 33.8208L21.7349 38.5081ZM30.2151 36.5402L34.2585 38.5081L33.6979 33.8208L30.2151 36.5402Z" fill="#E4761B" stroke="#E4761B" stroke-linecap="round" stroke-linejoin="round"/>
<path d="M34.2579 38.508L30.2146 36.54L30.5366 39.1759L30.5009 40.2852L34.2579 38.508ZM21.7344 38.508L25.4914 40.2852L25.4676 39.1759L25.7658 36.54L21.7344 38.508Z" fill="#D7C1B3" stroke="#D7C1B3" stroke-linecap="round" stroke-linejoin="round"/>
<path d="M25.5588 32.0792L22.1953 31.0893L24.5688 30.0039L25.5588 32.0792ZM30.437 32.0792L31.427 30.0039L33.8124 31.0893L30.437 32.0792Z" fill="#233447" stroke="#233447" stroke-linecap="round" stroke-linejoin="round"/>
<path d="M21.7388 38.5079L22.3113 33.6654L18.5781 33.7728L21.7388 38.5079ZM33.6899 33.6654L34.2624 38.5079L37.4231 33.7728L33.6899 33.6654ZM36.5285 28.334L29.8255 28.6322L30.4457 32.0791L31.4356 30.0038L33.8211 31.0892L36.5285 28.334ZM22.1921 31.0892L24.5775 30.0038L25.5555 32.0791L26.1877 28.6322L19.4727 28.334L22.1921 31.0892Z" fill="#CD6116" stroke="#CD6116" stroke-linecap="round" stroke-linejoin="round"/>
<path d="M19.4688 28.334L22.2836 33.8205L22.1881 31.0892L19.4688 28.334ZM33.8171 31.0892L33.6979 33.8205L36.5246 28.334L33.8171 31.0892ZM26.1838 28.6322L25.5516 32.0791L26.3388 36.1463L26.5177 30.791L26.1838 28.6322ZM29.8215 28.6322L29.4995 30.7791L29.6426 36.1463L30.4418 32.0791L29.8215 28.6322Z" fill="#E4751F" stroke="#E4751F" stroke-linecap="round" stroke-linejoin="round"/>
<path d="M30.4489 32.0788L29.6498 36.146L30.2223 36.5396L33.705 33.8202L33.8243 31.0889L30.4489 32.0788ZM22.1953 31.0889L22.2907 33.8202L25.7735 36.5396L26.346 36.146L25.5588 32.0788L22.1953 31.0889Z" fill="#F6851B" stroke="#F6851B" stroke-linecap="round" stroke-linejoin="round"/>
<path d="M30.5009 40.285L30.5366 39.1757L30.2385 38.9133H25.7419L25.4676 39.1757L25.4914 40.285L21.7344 38.5078L23.0464 39.5813L25.7061 41.43H30.2742L32.9459 39.5813L34.2579 38.5078L30.5009 40.285Z" fill="#C0AD9E" stroke="#C0AD9E" stroke-linecap="round" stroke-linejoin="round"/>
<path d="M30.2158 36.5401L29.6433 36.1465H26.3394L25.7669 36.5401L25.4688 39.176L25.7431 38.9136H30.2396L30.5378 39.176L30.2158 36.5401Z" fill="#01020C" stroke="#01020C" stroke-linecap="round" stroke-linejoin="round"/>
<path d="M42.1896 22.6211L43.2034 17.7548L41.6886 13.2344L30.2147 21.7504L34.6277 25.4836L40.8656 27.3084L42.2492 25.6983L41.6528 25.2689L42.607 24.3982L41.8675 23.8257L42.8217 23.0982L42.1896 22.6211ZM12.7891 17.7548L13.8029 22.6211L13.1588 23.0982L14.113 23.8257L13.3854 24.3982L14.3396 25.2689L13.7432 25.6983L15.1149 27.3084L21.3528 25.4836L25.7658 21.7504L14.2919 13.2344L12.7891 17.7548Z" fill="#763D16" stroke="#763D16" stroke-linecap="round" stroke-linejoin="round"/>
<path d="M40.873 27.3078L34.6351 25.4829L36.5315 28.3335L33.7048 33.82L37.426 33.7723H42.9722L40.873 27.3078ZM21.3601 25.4829L15.1222 27.3078L13.0469 33.7723H18.5811L22.2904 33.82L19.4756 28.3335L21.3601 25.4829ZM29.8284 28.6317L30.222 21.7497L32.035 16.8477H23.9841L25.7732 21.7497L26.1906 28.6317L26.3338 30.8025L26.3457 36.1458H29.6495L29.6734 30.8025L29.8284 28.6317Z" fill="#F6851B" stroke="#F6851B" stroke-linecap="round" stroke-linejoin="round"/>
</svg>
