<svg width="56" height="56" viewBox="0 0 56 56" fill="none" xmlns="http://www.w3.org/2000/svg">
<path d="M0 16C0 7.16344 7.16344 0 16 0H40C48.8366 0 56 7.16344 56 16V40C56 48.8366 48.8366 56 40 56H16C7.16344 56 0 48.8366 0 40V16Z" fill="#9A8AF4"/>
<path d="M14.2599 42C18.8538 42 22.3063 38.2684 24.3665 35.3196C24.116 35.972 23.9768 36.6244 23.9768 37.2507C23.9768 38.973 25.0348 40.1995 27.123 40.1995C29.9907 40.1995 33.0533 37.8509 34.6404 35.3196C34.529 35.685 34.4733 36.0243 34.4733 36.3374C34.4733 37.5378 35.1972 38.2945 36.6728 38.2945C41.3225 38.2945 46 30.5965 46 23.8639C46 18.6188 43.16 14 36.0325 14C23.5034 14 10 28.3001 10 37.5378C10 41.165 12.0882 42 14.2599 42ZM31.7169 23.2898C31.7169 21.9851 32.4965 21.0718 33.6381 21.0718C34.7517 21.0718 35.5313 21.9851 35.5313 23.2898C35.5313 24.5946 34.7517 25.534 33.6381 25.534C32.4965 25.534 31.7169 24.5946 31.7169 23.2898ZM37.6752 23.2898C37.6752 21.9851 38.4548 21.0718 39.5963 21.0718C40.7099 21.0718 41.4895 21.9851 41.4895 23.2898C41.4895 24.5946 40.7099 25.534 39.5963 25.534C38.4548 25.534 37.6752 24.5946 37.6752 23.2898Z" fill="white"/>
</svg>
