<svg width="18" height="18" viewBox="0 0 18 18" fill="none" xmlns="http://www.w3.org/2000/svg">
<path d="M7.87703 9.00009H3.75203M3.68854 9.21871L1.93735 14.4497C1.79977 14.8607 1.73098 15.0662 1.78035 15.1927C1.82322 15.3026 1.91529 15.3859 2.0289 15.4176C2.15973 15.4541 2.35733 15.3652 2.75253 15.1874L15.2861 9.54724C15.6719 9.37366 15.8647 9.28686 15.9244 9.16629C15.9762 9.06154 15.9762 8.93863 15.9244 8.83388C15.8647 8.71331 15.6719 8.62652 15.2861 8.45294L2.74816 2.81088C2.35415 2.63358 2.15715 2.54493 2.02645 2.58129C1.91295 2.61287 1.82088 2.69596 1.77787 2.80565C1.72833 2.93194 1.79638 3.13697 1.93249 3.54704L3.68903 8.83923C3.7124 8.90966 3.72409 8.94488 3.7287 8.98089C3.7328 9.01285 3.73276 9.04521 3.72858 9.07715C3.72387 9.11316 3.71209 9.14834 3.68854 9.21871Z" stroke="black" stroke-opacity="0.28" stroke-width="1.4" stroke-linecap="round" stroke-linejoin="round"/>
</svg>
