<svg width="74" height="74" viewBox="0 0 74 74" fill="none" xmlns="http://www.w3.org/2000/svg">
<g opacity="0.1">
<path d="M30.637 0H26.6593V39.6863H30.637V29.3681L32.6397 23.1892C34.216 18.3285 36.3578 13.6712 39.0281 9.31455C39.7838 8.0797 40.1825 6.65986 40.1825 5.21689V0H30.6323H30.637Z" fill="#1C1C1C"/>
<path d="M57.7699 7.42121L54.9559 4.61389L26.8247 32.6778L29.6387 35.4851L36.9543 28.187L42.7493 25.2317C47.3065 22.9054 52.1233 21.1248 57.1024 19.9269C58.5117 19.5893 59.8005 18.8678 60.8251 17.8457L64.5199 14.1597L57.7699 7.42583V7.42121Z" fill="#1C1C1C"/>
<path d="M74 30.7398V26.7717H34.2139V30.7398H44.5568L50.7505 32.7378C55.6229 34.3103 60.2914 36.447 64.6585 39.1109C65.8963 39.8648 67.3195 40.2625 68.766 40.2625H73.9954V30.7352L74 30.7398Z" fill="#1C1C1C"/>
<path d="M67.6734 58.5073L70.4874 55.7L42.3562 27.6361L39.5421 30.4434L46.8577 37.7415L49.8201 43.5226C52.1521 48.0689 53.9369 52.8742 55.1376 57.8413C55.4761 59.2473 56.1993 60.533 57.2238 61.5551L60.9187 65.2412L67.6687 58.5073H67.6734Z" fill="#1C1C1C"/>
<path d="M43.2869 74H47.2646V34.3137H43.2869V44.6319L41.2842 50.8107C39.7079 55.6715 37.5661 60.3288 34.8958 64.6854C34.1401 65.9203 33.7414 67.3401 33.7414 68.7831V74H43.2915H43.2869Z" fill="#1C1C1C"/>
<path d="M15.4942 67.5933L18.3083 70.4006L46.4395 42.3367L43.6254 39.5294L36.3098 46.8275L30.5148 49.7828C25.9577 52.1091 21.1409 53.8897 16.1618 55.0875C14.7525 55.4252 13.4637 56.1466 12.4391 57.1687L8.74422 60.8548L15.4942 67.5886V67.5933Z" fill="#1C1C1C"/>
<path d="M0 43.4383V47.4064H39.7815V43.4383H29.4386L23.2449 41.4403C18.3724 39.8679 13.704 37.7312 9.33689 35.0672C8.09908 34.3134 6.67583 33.9156 5.2294 33.9156H0V43.4429V43.4383Z" fill="#1C1C1C"/>
<path d="M6.58162 15.6934L3.76757 18.5007L31.8988 46.5646L34.7128 43.7573L27.3972 36.4592L24.4348 30.6781C22.1029 26.1318 20.3181 21.3265 19.1174 16.3594C18.7789 14.9534 18.0557 13.6677 17.0312 12.6456L13.3363 8.95957L6.58626 15.6934H6.58162Z" fill="#1C1C1C"/>
<path d="M41.2859 26.7717H32.7185L26.6593 32.8164V41.3632L32.7185 47.408H41.2859L47.3451 41.3632V32.8164L41.2859 26.7717Z" fill="#1C1C1C"/>
</g>
</svg>
