<?xml version="1.0" standalone="no"?>
<!DOCTYPE svg PUBLIC "-//W3C//DTD SVG 20010904//EN"
 "http://www.w3.org/TR/2001/REC-SVG-20010904/DTD/svg10.dtd">
<svg version="1.0" xmlns="http://www.w3.org/2000/svg"
 width="1000.000000pt" height="1000.000000pt" viewBox="0 0 1000.000000 1000.000000"
 preserveAspectRatio="xMidYMid meet">

<g transform="translate(0.000000,1000.000000) scale(0.100000,-0.100000)"
fill="#000000" stroke="none">
<path d="M0 5000 l0 -5000 5000 0 5000 0 0 5000 0 5000 -5000 0 -5000 0 0
-5000z m5266 3011 c226 -44 316 -90 667 -344 614 -444 1061 -767 1243 -898
105 -76 210 -159 233 -184 53 -57 87 -130 100 -215 15 -90 15 -2650 0 -2740
-22 -138 -78 -214 -243 -334 -56 -40 -166 -120 -246 -178 -80 -57 -293 -212
-475 -343 -181 -130 -368 -266 -415 -300 -464 -338 -551 -394 -700 -445 -161
-55 -396 -80 -570 -60 -257 28 -419 94 -666 272 -87 63 -242 175 -344 248
-372 268 -906 654 -955 690 -27 20 -98 71 -156 113 -171 124 -226 198 -248
337 -15 90 -15 2650 0 2740 23 144 78 216 276 358 70 51 164 118 208 150 1423
1030 1432 1036 1592 1090 209 72 470 88 699 43z"/>
<path d="M5040 6633 c-265 -15 -474 -73 -693 -195 -124 -68 -223 -143 -340
-257 l-97 -95 -48 47 c-26 26 -53 47 -59 47 -16 0 -155 -173 -210 -260 -95
-153 -177 -362 -209 -535 -26 -140 -28 -404 -4 -535 34 -181 59 -261 134 -423
68 -148 193 -318 325 -444 l76 -72 -50 -51 -50 -52 60 -55 c309 -283 757 -425
1195 -379 350 37 704 211 941 464 l67 70 48 -49 c56 -57 50 -59 143 56 247
303 366 644 356 1025 -5 187 -42 379 -106 539 -71 179 -244 432 -374 549 l-59
52 48 49 c27 27 47 53 45 59 -7 18 -157 140 -245 197 -256 169 -598 264 -894
248z"/>
</g>
</svg>
