<?xml version="1.0" encoding="UTF-8"?>
<svg version="1.1" xmlns="http://www.w3.org/2000/svg" width="400" height="400">
<path d="M0 0 C132 0 264 0 400 0 C400 132 400 264 400 400 C268 400 136 400 0 400 C0 268 0 136 0 0 Z " fill="#0000FD" transform="translate(0,0)"/>
<path d="M0 0 C1.51395103 -0.01073296 1.51395103 -0.01073296 3.05848694 -0.02168274 C4.17016739 -0.02437164 5.28184784 -0.02706055 6.42721558 -0.02983093 C8.1786512 -0.03968773 8.1786512 -0.03968773 9.96546936 -0.04974365 C13.84447573 -0.06951577 17.72346859 -0.08115036 21.60250854 -0.09111023 C22.9389943 -0.09515816 24.27547985 -0.09927509 25.61196518 -0.10346031 C31.89426167 -0.12251802 38.1765464 -0.13674495 44.45886624 -0.14507228 C51.70182932 -0.15483198 58.94448576 -0.18111547 66.18734086 -0.22157317 C71.7900102 -0.25179019 77.39259197 -0.26654663 82.99534118 -0.26985329 C86.33919615 -0.27219852 89.68246452 -0.28307524 93.02627945 -0.30631447 C96.76303704 -0.3306665 100.49899664 -0.32974718 104.23580933 -0.32279968 C105.33534439 -0.33560974 106.43487946 -0.3484198 107.56773376 -0.36161804 C113.89890073 -0.31877881 119.00889987 0.31603875 124.21969604 4.14717102 C126.51266479 7.04560852 126.51266479 7.04560852 128.40719604 10.52217102 C129.16682141 11.87548008 129.92729018 13.22831594 130.68844604 14.58076477 C131.29366089 15.68073792 131.29366089 15.68073792 131.91110229 16.80293274 C134.31901066 21.11650291 136.8787325 25.34107204 139.40719604 29.58467102 C144.72932936 38.58320048 149.99458872 47.61450511 155.25387573 56.64985657 C158.51974436 62.25393642 161.80938452 67.84164914 165.15719604 73.39717102 C167.86235072 77.88695914 170.55848531 82.38117705 173.21969604 86.89717102 C173.77657104 87.84076477 174.33344604 88.78435852 174.90719604 89.75654602 C177.32401089 94.15860163 178.01646557 98.21363849 177.21969604 103.14717102 C173.76436039 112.51333617 167.71664606 121.1093479 162.55953979 129.60810852 C159.06763536 135.37465086 155.66934994 141.19365142 152.28219604 147.02217102 C146.10876864 157.63237602 139.9060953 168.22413757 133.62692261 178.77217102 C132.34099935 180.94244539 131.07111395 183.12118938 129.80563354 185.30342102 C129.11084529 186.48081387 128.41557912 187.65792492 127.71969604 188.83467102 C127.15250854 189.80791321 126.58532104 190.7811554 126.00094604 191.78388977 C123.13166797 195.59071705 119.81019474 197.22364165 115.21969604 198.14717102 C113.57345084 198.24404777 111.92386965 198.29042915 110.27481079 198.30107117 C109.27958908 198.30967163 108.28436737 198.31827209 107.25898743 198.32713318 C105.63030479 198.3335231 105.63030479 198.3335231 103.96871948 198.34004211 C102.24610649 198.35230835 102.24610649 198.35230835 100.48869324 198.36482239 C96.68549113 198.38964976 92.88232626 198.40618497 89.07907104 198.42060852 C87.77984962 198.4259322 86.4806282 198.43125587 85.14203644 198.43674088 C79.680913 198.45796295 74.21980164 198.47709295 68.75864792 198.48836327 C60.94788186 198.50459215 53.13761397 198.53775639 45.32703567 198.59476411 C39.16221306 198.63821694 32.99758506 198.65411653 26.83261871 198.66049576 C24.21557314 198.66721112 21.5985349 198.68244037 18.98159027 198.70638657 C15.31675901 198.73801046 11.65318267 198.73807815 7.98825073 198.73066711 C6.91055923 198.74707245 5.83286774 198.76347778 4.72251892 198.78038025 C-1.97763281 198.72500516 -6.67688329 197.66303093 -11.78030396 193.14717102 C-13.72761867 190.79321007 -15.27263758 188.36361197 -16.78030396 185.70967102 C-17.20488892 184.99722229 -17.62947388 184.28477356 -18.06692505 183.55073547 C-19.325203 181.42736187 -20.55675218 179.290702 -21.78030396 177.14717102 C-22.39131958 176.08756165 -23.00233521 175.02795227 -23.63186646 173.93623352 C-24.87532947 171.76154269 -26.11171005 169.58279409 -27.34280396 167.40107727 C-30.61671297 161.64454932 -34.02181438 155.96467837 -37.40530396 150.27217102 C-42.8148288 141.16705379 -48.19640631 132.04688982 -53.53030396 122.89717102 C-54.10216431 121.91635559 -54.67402466 120.93554016 -55.26321411 119.92500305 C-56.3114645 118.12463065 -57.35685367 116.32258777 -58.39871216 114.51850891 C-59.25888246 113.04212897 -60.13271926 111.57352144 -61.02713013 110.11763 C-64.55365487 104.30205436 -65.13829809 99.79299708 -63.78030396 93.14717102 C-61.79201876 88.21779861 -58.91131261 83.74251254 -56.09329224 79.2545929 C-54.36494497 76.48049591 -52.72379697 73.65937242 -51.08035278 70.83442688 C-49.82517407 68.67940215 -48.5585147 66.53153604 -47.28811646 64.38545227 C-44.92511232 60.39300899 -42.56997251 56.39600547 -40.21780396 52.39717102 C-39.82633179 51.73273987 -39.43485962 51.06830872 -39.03152466 50.38374329 C-36.57680719 46.21426066 -34.13253662 42.03883792 -31.69670105 37.85829163 C-30.18784506 35.26929922 -28.67686609 32.68154824 -27.16583252 30.09382629 C-26.41846194 28.81259662 -25.67207674 27.53079156 -24.92675781 26.24836731 C-9.6973616 0.04708932 -9.6973616 0.04708932 0 0 Z " fill="#FBFCFD" transform="translate(143.78030395507813,100.85282897949219)"/>
<path d="M0 0 C7.08638609 5.90172046 11.20620154 12.97020847 15.5625 21 C23.35432893 35.35526754 23.35432893 35.35526754 35.5625 45.875 C36.45066406 46.42929688 37.33882812 46.98359375 38.25390625 47.5546875 C44.71910133 50.95742175 49.3481234 51.23481234 57 52 C57 61.57 57 71.14 57 81 C54.56625 81.53625 52.1325 82.0725 49.625 82.625 C36.77620794 85.73257251 28.01616636 91.79991967 21.04296875 103.19921875 C19.69051232 105.55239263 18.37470422 107.92498084 17.0625 110.30078125 C8.74694353 125.32692807 0.62940644 135.89174291 -16.13671875 141.74609375 C-29.24731719 145.36711618 -44.1121604 143.51658767 -56.10546875 137.421875 C-66.71019458 131.06762633 -71.75913002 122.37343171 -77.85644531 111.953125 C-79.63509988 108.91528628 -81.43216455 105.88954061 -83.25 102.875 C-84.15492188 101.35519531 -84.15492188 101.35519531 -85.078125 99.8046875 C-93.64352748 87.30477087 -104.77701951 83.73518856 -119 81 C-119 71.76 -119 62.52 -119 53 C-116.56625 52.46375 -114.1325 51.9275 -111.625 51.375 C-100.12443968 48.61193129 -90.68571933 43.28661416 -84.16235352 33.14233398 C-82.2482481 29.82726845 -80.39193875 26.48751982 -78.5625 23.125 C-70.92239404 9.0901972 -63.49589464 -1.22914892 -48.125 -7.09765625 C-32.10843714 -11.77640763 -13.69372 -9.84477893 0 0 Z " fill="#0000FB" transform="translate(231,133)"/>
<path d="M0 0 C1 3 1 3 0 6 C-1.8125 6.8125 -1.8125 6.8125 -4 7 C-6.25 6.0625 -6.25 6.0625 -8 5 C-7.505 6.485 -7.505 6.485 -7 8 C-7.99 8.33 -8.98 8.66 -10 9 C-10 8.34 -10 7.68 -10 7 C-48.94 7.33 -87.88 7.66 -128 8 C-128 7.01 -128 6.02 -128 5 C-127.39315841 4.99761165 -126.78631681 4.99522329 -126.16108608 4.99276257 C-111.3791679 4.93356566 -96.59740125 4.85798562 -81.81566525 4.76428509 C-74.66724563 4.71936467 -67.51887541 4.67994144 -60.37036133 4.65356445 C-54.13799417 4.63055385 -47.90578383 4.59712186 -41.67354113 4.55129844 C-38.3751343 4.52740713 -35.07691494 4.51020632 -31.77842522 4.50238609 C-28.09155083 4.49276014 -24.40524127 4.46471704 -20.71850586 4.43237305 C-19.08714943 4.43452568 -19.08714943 4.43452568 -17.4228363 4.4367218 C-11.48774707 4.36310967 -7.26152041 3.79297531 -2 1 C-1.34 0.67 -0.68 0.34 0 0 Z " fill="#0304DC" transform="translate(268,294)"/>
<path d="M0 0 C1.17145065 0.00931549 2.34290131 0.01863098 3.54985046 0.02822876 C7.40796321 0.06250422 11.26543973 0.11841676 15.12329102 0.17456055 C17.80371268 0.20260357 20.48411936 0.22944326 23.16456604 0.25468445 C29.48980505 0.31687982 35.81475151 0.39465731 42.13974196 0.47810477 C49.34399619 0.57238853 56.54840408 0.64919282 63.75287712 0.7245661 C78.56539499 0.87992457 93.37760361 1.05711343 108.18969727 1.2487793 C108.18969727 1.9087793 108.18969727 2.5687793 108.18969727 3.2487793 C107.56978283 3.25301124 106.94986839 3.25724318 106.31116867 3.26160336 C91.22994315 3.36489085 76.14876645 3.47352578 61.06762314 3.58811855 C53.7745091 3.64340559 46.48139018 3.69688014 39.18823242 3.74609375 C32.83180453 3.78899098 26.47541201 3.8352829 20.11903882 3.88565785 C16.75314532 3.91221419 13.38725864 3.93706608 10.02132416 3.95785332 C6.26457324 3.98190719 2.50791555 4.01196073 -1.2487793 4.04345703 C-2.92436668 4.05209023 -2.92436668 4.05209023 -4.63380432 4.06089783 C-5.65741562 4.07068665 -6.68102692 4.08047546 -7.73565674 4.09056091 C-8.62426517 4.09701346 -9.51287361 4.10346601 -10.42840958 4.1101141 C-12.80807716 4.16026438 -12.80807716 4.16026438 -15.00246811 4.88366795 C-15.89734625 5.06439806 -15.89734625 5.06439806 -16.81030273 5.2487793 C-17.47030273 4.5887793 -18.13030273 3.9287793 -18.81030273 3.2487793 C-12.50728482 -0.13898706 -7.06209805 -0.12964135 0 0 Z " fill="#0305D9" transform="translate(151.810302734375,97.751220703125)"/>
<path d="M0 0 C15.72461763 -0.04669458 31.44921658 -0.08197635 47.1738863 -0.10362434 C54.47491586 -0.11394248 61.77590237 -0.12801305 69.0769043 -0.15087891 C75.4395188 -0.17079637 81.80210213 -0.18371253 88.16474694 -0.18817699 C91.53457159 -0.19078717 94.90430706 -0.1969333 98.27410316 -0.21146011 C102.03345731 -0.22590783 105.79262467 -0.22798075 109.55200195 -0.22705078 C110.67265549 -0.23424133 111.79330902 -0.24143188 112.94792175 -0.24884033 C113.97015839 -0.246091 114.99239502 -0.24334167 116.04560852 -0.24050903 C116.93513875 -0.24235262 117.82466898 -0.24419621 118.74115467 -0.24609566 C121 0 121 0 124 2 C118.16445658 3.27601019 112.4237099 3.09277493 106.48681641 3.02172852 C105.33501892 3.01212097 104.18322144 3.00251343 102.996521 2.99261475 C99.19813795 2.95969431 95.39987243 2.91933532 91.6015625 2.87890625 C88.96455293 2.85459835 86.32753904 2.83075513 83.69052124 2.80735779 C77.46454892 2.75133445 71.23864146 2.68995603 65.01273954 2.62663645 C57.92208406 2.55478405 50.83137682 2.48892769 43.740659 2.42356598 C29.1603729 2.28903212 14.5801657 2.14699759 0 2 C0 1.34 0 0.68 0 0 Z " fill="#CBCFFE" transform="translate(139,101)"/>
<path d="M0 0 C0 0.66 0 1.32 0 2 C-2.64 2 -5.28 2 -8 2 C-8 10.58 -8 19.16 -8 28 C-5.03 28 -2.06 28 1 28 C4.28515625 28.875 4.28515625 28.875 7.0625 30 C8.00222656 30.37125 8.94195312 30.7425 9.91015625 31.125 C10.94462891 31.558125 10.94462891 31.558125 12 32 C12 32.66 12 33.32 12 34 C13.32 34 14.64 34 16 34 C16.66 34.66 17.32 35.32 18 36 C18.66 36 19.32 36 20 36 C20 36.99 20 37.98 20 39 C23.91063224 40.47047336 23.91063224 40.47047336 28 41 C27.690625 41.598125 27.38125 42.19625 27.0625 42.8125 C25.89790296 45.08956772 25.89790296 45.08956772 25 48 C24.505 47.13375 24.01 46.2675 23.5 45.375 C17.60332873 36.57151895 7.44009112 32.40001971 -2.5 30.25 C-4.645 29.8375 -6.79 29.425 -9 29 C-9 19.76 -9 10.52 -9 1 C-6.04335481 -0.4783226 -3.25770263 -0.06032783 0 0 Z " fill="#2423D9" transform="translate(121,185)"/>
<path d="M0 0 C0.66 0 1.32 0 2 0 C1.9071875 0.84820312 1.814375 1.69640625 1.71875 2.5703125 C1.12633464 12.19706205 3.15202912 17.3422541 8.34765625 25.234375 C8.89292969 26.14703125 9.43820313 27.0596875 10 28 C9.67 28.66 9.34 29.32 9 30 C8.34 29.67 7.68 29.34 7 29 C7 29.99 7 30.98 7 32 C6.34 32 5.68 32 5 32 C3.36635351 28.4263983 3 25.88292541 3 22 C2.12516085 19.83284443 2.12516085 19.83284443 1 18 C-0.59412284 14.81175432 -0.10174735 11.37103338 -0.0625 7.875 C-0.05798828 7.12089844 -0.05347656 6.36679688 -0.04882812 5.58984375 C-0.03703499 3.72652873 -0.01909942 1.86325445 0 0 Z " fill="#1716E4" transform="translate(79,192)"/>
<path d="M0 0 C0.33 0.66 0.66 1.32 1 2 C0.02616054 3.68208635 -0.97695052 5.34738161 -2 7 C-2.69579454 9.19130534 -2.69579454 9.19130534 -3 11 C-3.66 11 -4.32 11 -5 11 C-5 12.32 -5 13.64 -5 15 C-5.66 15 -6.32 15 -7 15 C-7.33 16.32 -7.66 17.64 -8 19 C-8.66 19 -9.32 19 -10 19 C-10.33 20.65 -10.66 22.3 -11 24 C-11.66 24 -12.32 24 -13 24 C-13 25.32 -13 26.64 -13 28 C-14.32 28.33 -15.64 28.66 -17 29 C-11.48173292 19.2415386 -5.80331389 9.59158824 0 0 Z " fill="#1814D5" transform="translate(314,216)"/>
<path d="M0 0 C1.2065625 0.0309375 1.2065625 0.0309375 2.4375 0.0625 C0.79797417 4.7018176 -1.63121052 8.70105858 -4.1875 12.875 C-4.60773438 13.56787109 -5.02796875 14.26074219 -5.4609375 14.97460938 C-6.4914467 16.67260748 -7.52651681 18.36783614 -8.5625 20.0625 C-8.8925 18.7425 -9.2225 17.4225 -9.5625 16.0625 C-8.9025 16.0625 -8.2425 16.0625 -7.5625 16.0625 C-7.5625 14.4125 -7.5625 12.7625 -7.5625 11.0625 C-6.9025 11.0625 -6.2425 11.0625 -5.5625 11.0625 C-5.5625 10.4025 -5.5625 9.7425 -5.5625 9.0625 C-4.9025 9.0625 -4.2425 9.0625 -3.5625 9.0625 C-3.418125 8.464375 -3.27375 7.86625 -3.125 7.25 C-2.6752561 5.50099596 -2.13357659 3.77572977 -1.5625 2.0625 C-2.2225 1.7325 -2.8825 1.4025 -3.5625 1.0625 C-2.5625 0.0625 -2.5625 0.0625 0 0 Z " fill="#1312DA" transform="translate(92.5625,167.9375)"/>
<path d="M0 0 C1.9375 0.375 1.9375 0.375 4 1 C4.33 1.66 4.66 2.32 5 3 C5.66 3 6.32 3 7 3 C7.33 6.3 7.66 9.6 8 13 C8.66 13 9.32 13 10 13 C10.33 14.65 10.66 16.3 11 18 C7.31420878 14.77085548 5.31643755 11.11346469 3.25 6.75 C2.93417969 6.1003125 2.61835938 5.450625 2.29296875 4.78125 C1.52126035 3.19106299 0.75959725 1.59600771 0 0 Z " fill="#1413DD" transform="translate(147,233)"/>
<path d="M0 0 C0.33 0.99 0.66 1.98 1 3 C-0.1796875 5.12109375 -0.1796875 5.12109375 -1.875 7.4375 C-3.95494118 10.29620985 -5.37736195 12.49566531 -6 16 C-6.66 16 -7.32 16 -8 16 C-8.66 18.31 -9.32 20.62 -10 23 C-10.66 23 -11.32 23 -12 23 C-12 23.66 -12 24.32 -12 25 C-12.66 25 -13.32 25 -14 25 C-12.32280712 20.36732128 -9.9856227 16.20830269 -7.5625 11.9375 C-7.16740234 11.23044922 -6.77230469 10.52339844 -6.36523438 9.79492188 C-4.42676178 6.35985813 -2.48642136 3.07804574 0 0 Z " fill="#1E1DD4" transform="translate(163,139)"/>
<path d="M0 0 C2 0 2 0 3.5 1.1875 C6.04023195 4.25694694 7 7.03507037 7 11 C7.66 11 8.32 11 9 11 C9.69965443 12.26418246 10.38434763 13.53665402 11.0625 14.8125 C11.44535156 15.52019531 11.82820313 16.22789062 12.22265625 16.95703125 C13 19 13 19 12 22 C9.99654339 18.52281278 7.99781651 15.04293033 6 11.5625 C5.42765625 10.56927734 4.8553125 9.57605469 4.265625 8.55273438 C3.72421875 7.60849609 3.1828125 6.66425781 2.625 5.69140625 C2.12226563 4.81685791 1.61953125 3.94230957 1.1015625 3.04125977 C0 1 0 1 0 0 Z " fill="#1B17D3" transform="translate(274,115)"/>
<path d="M0 0 C2.96655321 3.55854831 5.45858103 7.1982268 7.8125 11.1875 C8.43769531 12.23292969 9.06289062 13.27835937 9.70703125 14.35546875 C10.13371094 15.22816406 10.56039062 16.10085938 11 17 C10.67 17.66 10.34 18.32 10 19 C4.80769231 13.80769231 4.80769231 13.80769231 4 10 C3.67 9.01 3.34 8.02 3 7 C2.01 7 1.02 7 0 7 C0 4.69 0 2.38 0 0 Z " fill="#1D19DE" transform="translate(115,266)"/>
<path d="M0 0 C0.66 0.99 1.32 1.98 2 3 C1.01 3.8971875 1.01 3.8971875 0 4.8125 C-2.3373846 6.87501834 -2.3373846 6.87501834 -2 10 C-2.61875 10.20625 -3.2375 10.4125 -3.875 10.625 C-6.84653645 12.54775888 -7.13024659 14.66594527 -8 18 C-8.66 18 -9.32 18 -10 18 C-8.47146065 13.72813475 -6.28490519 10.00673137 -3.875 6.1875 C-3.50246094 5.59001953 -3.12992187 4.99253906 -2.74609375 4.37695312 C-1.8342952 2.91573749 -0.91764024 1.45755415 0 0 Z " fill="#1914DA" transform="translate(287,262)"/>
<path d="M0 0 C3.28465896 2.79196011 5.01321958 6.23196817 7 10 C7 10.66 7 11.32 7 12 C6.01 12.33 5.02 12.66 4 13 C3.67 13.66 3.34 14.32 3 15 C2.34 15 1.68 15 1 15 C0.875 12.125 0.875 12.125 1 9 C1.66 8.34 2.32 7.68 3 7 C2.505 6.21625 2.01 5.4325 1.5 4.625 C0 2 0 2 0 0 Z " fill="#110FE2" transform="translate(99,239)"/>
<path d="M0 0 C0.33 0 0.66 0 1 0 C1.66 2.31 2.32 4.62 3 7 C-2.75 11 -2.75 11 -5 11 C-5 11.66 -5 12.32 -5 13 C-5.66 12.67 -6.32 12.34 -7 12 C-5.85865673 9.99743426 -4.71181367 7.99800203 -3.5625 6 C-2.92441406 4.88625 -2.28632813 3.7725 -1.62890625 2.625 C-1.09136719 1.75875 -0.55382812 0.8925 0 0 Z " fill="#100FD7" transform="translate(276,280)"/>
<path d="M0 0 C0.66 0.99 1.32 1.98 2 3 C-3.53846154 8.84615385 -3.53846154 8.84615385 -7 10 C-7.99 9.67 -8.98 9.34 -10 9 C-6.7 6.03 -3.4 3.06 0 0 Z " fill="#ECF1FC" transform="translate(266,220)"/>
<path d="M0 0 C1.54451108 3.08902216 0.57033137 5.593777 -0.1875 8.8671875 C-1 11 -1 11 -3.625 13.0625 C-4.40875 13.371875 -5.1925 13.68125 -6 14 C-6.33 13.34 -6.66 12.68 -7 12 C-5.56640625 9.1796875 -5.56640625 9.1796875 -3.5625 5.875 C-2.57443359 4.23144531 -2.57443359 4.23144531 -1.56640625 2.5546875 C-1.04949219 1.71164063 -0.53257812 0.86859375 0 0 Z " fill="#1310DB" transform="translate(295,248)"/>
<path d="M0 0 C0 0.66 0 1.32 0 2 C0.66 2.33 1.32 2.66 2 3 C-3.44535609 6.38495108 -8.67721029 6.67373505 -15 7 C-12.35658072 5.23772048 -9.76922765 3.80128992 -6.9375 2.375 C-6.05964844 1.92898437 -5.18179688 1.48296875 -4.27734375 1.0234375 C-2 0 -2 0 0 0 Z " fill="#1312DA" transform="translate(137,178)"/>
<path d="M0 0 C3 1 3 1 4 3 C4.12114921 4.64255791 4.17540767 6.29052478 4.1875 7.9375 C4.20167969 8.81277344 4.21585937 9.68804687 4.23046875 10.58984375 C4 13 4 13 2 16 C1.34 15.67 0.68 15.34 0 15 C0.33 14.01 0.66 13.02 1 12 C1.23294845 5.91431338 1.23294845 5.91431338 0 0 Z " fill="#0E0DD2" transform="translate(319,192)"/>
<path d="M0 0 C3.28465896 2.79196011 5.01321958 6.23196817 7 10 C7 10.66 7 11.32 7 12 C5.35 11.67 3.7 11.34 2 11 C2.33 9.35 2.66 7.7 3 6 C1.68 5.67 0.36 5.34 -1 5 C-0.67 3.35 -0.34 1.7 0 0 Z " fill="#100FDA" transform="translate(106,251)"/>
<path d="M0 0 C-2.88019276 1.46652017 -5.79308515 2.82047874 -8.75 4.125 C-9.54921875 4.47820312 -10.3484375 4.83140625 -11.171875 5.1953125 C-11.77515625 5.46085938 -12.3784375 5.72640625 -13 6 C-13.33 4.68 -13.66 3.36 -14 2 C-9.15758367 0.66416101 -5.06562383 -0.25328119 0 0 Z " fill="#100CDA" transform="translate(278,215)"/>
<path d="M0 0 C0.99 0.33 1.98 0.66 3 1 C3.33333333 2.33333333 3.66666667 3.66666667 4 5 C4.99 5.33 5.98 5.66 7 6 C7.66 6.33 8.32 6.66 9 7 C9 8.65 9 10.3 9 12 C4.99027798 8.32442148 2.54664585 4.81033104 0 0 Z " fill="#1513DB" transform="translate(158,252)"/>
<path d="M0 0 C1 3 1 3 0 6 C-2.0625 6.6875 -2.0625 6.6875 -4 7 C-4 6.67 -4 6.34 -4 6 C-5.65 5.67 -7.3 5.34 -9 5 C-8.443125 4.731875 -7.88625 4.46375 -7.3125 4.1875 C-4.80287477 2.89877353 -2.40665764 1.47073522 0 0 Z " fill="#120EE1" transform="translate(268,294)"/>
<path d="M0 0 C2.61500768 2.36595933 4.38999603 4.86049226 6 8 C5.67 8.66 5.34 9.32 5 10 C3.68 10 2.36 10 1 10 C1.33 8.35 1.66 6.7 2 5 C1.34 5 0.68 5 0 5 C0 3.35 0 1.7 0 0 Z " fill="#1412D8" transform="translate(89,222)"/>
<path d="M0 0 C0.66 0.33 1.32 0.66 2 1 C-0.31 4.3 -2.62 7.6 -5 11 C-5.33 9.68 -5.66 8.36 -6 7 C-5.34 7 -4.68 7 -4 7 C-4 6.34 -4 5.68 -4 5 C-3.34 5 -2.68 5 -2 5 C-2 3.68 -2 2.36 -2 1 C-1.34 0.67 -0.68 0.34 0 0 Z " fill="#1110D5" transform="translate(241,251)"/>
<path d="M0 0 C-0.33 0.66 -0.66 1.32 -1 2 C-4.01490557 3.00496852 -6.04181692 3.10335303 -9.1875 3.0625 C-10.53908203 3.04896484 -10.53908203 3.04896484 -11.91796875 3.03515625 C-12.60503906 3.02355469 -13.29210937 3.01195312 -14 3 C-9.11521152 0.50693368 -5.53108342 -0.12570644 0 0 Z " fill="#CFD3FB" transform="translate(288,214)"/>
<path d="M0 0 C2.64 0.33 5.28 0.66 8 1 C7.690625 1.598125 7.38125 2.19625 7.0625 2.8125 C5.89790296 5.08956772 5.89790296 5.08956772 5 8 C2.525 4.04 2.525 4.04 0 0 Z " fill="#0F0CE0" transform="translate(141,225)"/>
<path d="M0 0 C0.66 0 1.32 0 2 0 C2 0.66 2 1.32 2 2 C2.66 2.33 3.32 2.66 4 3 C5.10546875 4.5234375 5.10546875 4.5234375 6.1875 6.375 C6.55230469 6.98085937 6.91710937 7.58671875 7.29296875 8.2109375 C8 10 8 10 7 13 C5.83072457 11.02237345 4.66464427 9.04285742 3.5 7.0625 C2.8503125 5.96035156 2.200625 4.85820312 1.53125 3.72265625 C0 1 0 1 0 0 Z " fill="#1816CF" transform="translate(287,137)"/>
<path d="M0 0 C3 1 3 1 4.38671875 3.28515625 C4.81597656 4.20167969 5.24523437 5.11820313 5.6875 6.0625 C6.34298828 7.44115234 6.34298828 7.44115234 7.01171875 8.84765625 C7.33785156 9.55792969 7.66398437 10.26820313 8 11 C7.01 11.495 7.01 11.495 6 12 C4.02 8.04 2.04 4.08 0 0 Z " fill="#1B17D7" transform="translate(311,178)"/>
<path d="M0 0 C0 3.66842255 -0.79029126 5.10451959 -3 8 C-5.6875 8.8125 -5.6875 8.8125 -8 9 C-7.04270084 7.87411986 -6.08412105 6.7493285 -5.125 5.625 C-4.59132812 4.99851563 -4.05765625 4.37203125 -3.5078125 3.7265625 C-2.38567993 2.44163349 -1.20628025 1.20628025 0 0 Z " fill="#1D1AD4" transform="translate(145,169)"/>
<path d="M0 0 C0.33 0 0.66 0 1 0 C0.67 2.97 0.34 5.94 0 9 C-3 6 -3 6 -4 3 C-3.01 2.67 -2.02 2.34 -1 2 C-0.67 1.34 -0.34 0.68 0 0 Z " fill="#EBECFD" transform="translate(125,272)"/>
<path d="M0 0 C0.66 0 1.32 0 2 0 C2.33 0.99 2.66 1.98 3 3 C3.99 3.33 4.98 3.66 6 4 C5.67 5.65 5.34 7.3 5 9 C0.57142857 3.85714286 0.57142857 3.85714286 0 0 Z " fill="#1813DC" transform="translate(299,157)"/>
<path d="M0 0 C-1.2491742 3.45925163 -2.67527795 6.14693203 -5 9 C-5.1875 5.625 -5.1875 5.625 -5 2 C-2 0 -2 0 0 0 Z " fill="#1716D7" transform="translate(109,144)"/>
<path d="M0 0 C2.97 1.65 5.94 3.3 9 5 C9 5.33 9 5.66 9 6 C6.1875 6.25 6.1875 6.25 3 6 C1.125 4.125 1.125 4.125 0 2 C0 1.34 0 0.68 0 0 Z " fill="#1A17D7" transform="translate(131,293)"/>
<path d="M0 0 C2.61500768 2.36595933 4.38999603 4.86049226 6 8 C5.67 8.66 5.34 9.32 5 10 C0 5 0 5 -0.125 2.375 C-0.08375 1.59125 -0.0425 0.8075 0 0 Z " fill="#120FD0" transform="translate(120,275)"/>
<path d="M0 0 C0.66 0.33 1.32 0.66 2 1 C1.67 2.32 1.34 3.64 1 5 C0.38125 4.814375 -0.2375 4.62875 -0.875 4.4375 C-3.04160178 3.76313824 -3.04160178 3.76313824 -5 5 C-4.1875 3.0625 -4.1875 3.0625 -3 1 C-2.01 0.67 -1.02 0.34 0 0 Z " fill="#0101EE" transform="translate(293,259)"/>
<path d="M0 0 C0.66 0.66 1.32 1.32 2 2 C0.68 2.33 -0.64 2.66 -2 3 C-1.34 2.01 -0.68 1.02 0 0 Z M-4 3 C-3.34 3.33 -2.68 3.66 -2 4 C-3.98 4.99 -3.98 4.99 -6 6 C-6 6.66 -6 7.32 -6 8 C-6.66 7.67 -7.32 7.34 -8 7 C-6.68 5.68 -5.36 4.36 -4 3 Z " fill="#0C0AE9" transform="translate(277,285)"/>
<path d="M0 0 C2.97 0.495 2.97 0.495 6 1 C5.67 2.98 5.34 4.96 5 7 C1.125 2.25 1.125 2.25 0 0 Z " fill="#1613DA" transform="translate(304,167)"/>
</svg>
