<svg width="242" height="36" viewBox="0 0 242 36" fill="none" xmlns="http://www.w3.org/2000/svg">
<path d="M0.328125 19.4954C0.328125 9.16365 8.70368 0.788086 19.0354 0.788086H219.555C231.501 0.788086 241.185 10.4723 241.185 22.4184C241.185 34.3645 231.501 44.0488 219.555 44.0488H0.328125V19.4954Z" fill="#191919"/>
<path d="M17.9993 28.418L14.4636 15.5847H16.6898L18.8785 24.0405C18.9159 24.1776 18.9596 24.3647 19.0095 24.6017C19.0594 24.8386 19.103 25.0881 19.1404 25.35C19.1903 25.5994 19.234 25.8301 19.2714 26.0421H19.3836C19.421 25.88 19.4522 25.7054 19.4772 25.5183C19.5021 25.3313 19.5333 25.1442 19.5707 24.9571C19.6081 24.77 19.6393 24.5954 19.6642 24.4333C19.7016 24.2712 19.7266 24.1402 19.7391 24.0405L21.7594 15.5847H24.4533L26.4924 24.0405C26.5298 24.1776 26.5735 24.3647 26.6233 24.6017C26.6732 24.8386 26.7169 25.0881 26.7543 25.35C26.8042 25.5994 26.8478 25.8301 26.8853 26.0421H26.9975C27.0224 25.8925 27.0536 25.7241 27.091 25.537C27.1284 25.35 27.1659 25.1691 27.2033 24.9945C27.2407 24.8075 27.2781 24.6329 27.3155 24.4707C27.3654 24.3086 27.4028 24.1652 27.4278 24.0405L29.6165 15.5847H31.5995L28.0638 28.418H25.6132L23.4618 19.85C23.4244 19.6629 23.3807 19.4509 23.3309 19.214C23.281 18.9645 23.2311 18.7151 23.1812 18.4657C23.1438 18.2038 23.1126 17.9793 23.0877 17.7922H22.9941C22.9692 17.9918 22.938 18.2225 22.9006 18.4844C22.8632 18.7463 22.8195 19.002 22.7696 19.2514C22.7198 19.4883 22.6761 19.6879 22.6387 19.85L20.5248 28.418H17.9993ZM33.0676 28.418V14.8926H35.0131V19.7565H35.1441C35.3811 19.4572 35.6492 19.2077 35.9485 19.0082C36.2478 18.7962 36.5846 18.634 36.9587 18.5218C37.3329 18.4096 37.7444 18.3534 38.1934 18.3534C38.817 18.3534 39.3657 18.4657 39.8396 18.6902C40.3135 18.9022 40.6815 19.2514 40.9434 19.7378C41.2177 20.2242 41.3549 20.8789 41.3549 21.702V28.418H39.4094V22.0014C39.4094 21.6272 39.3595 21.3154 39.2597 21.066C39.1724 20.8166 39.0415 20.617 38.8669 20.4674C38.6922 20.3177 38.4865 20.2117 38.2495 20.1493C38.0125 20.087 37.7506 20.0558 37.4638 20.0558C37.0148 20.0558 36.6033 20.1618 36.2291 20.3738C35.8674 20.5858 35.5744 20.8852 35.3499 21.2718C35.1254 21.6584 35.0131 22.1198 35.0131 22.6561V28.418H33.0676ZM46.2795 28.6425C45.9677 28.6425 45.631 28.605 45.2693 28.5302C44.9076 28.4554 44.5646 28.3182 44.2404 28.1187C43.9286 27.9191 43.6729 27.6447 43.4734 27.2955C43.2738 26.9339 43.1741 26.4662 43.1741 25.8925C43.1741 25.219 43.33 24.664 43.6417 24.2275C43.9535 23.791 44.39 23.4481 44.9513 23.1986C45.5125 22.9492 46.1797 22.7746 46.9529 22.6748C47.7387 22.575 48.593 22.5252 49.5158 22.5252V21.5524C49.5158 21.2281 49.4597 20.9413 49.3475 20.6918C49.2477 20.4424 49.0544 20.2491 48.7676 20.1119C48.4932 19.9747 48.0941 19.9061 47.5703 19.9061C47.0465 19.9061 46.6349 19.9747 46.3356 20.1119C46.0488 20.2366 45.843 20.3988 45.7183 20.5983C45.606 20.7854 45.5499 20.9912 45.5499 21.2157V21.4963H43.6792C43.6667 21.4339 43.6605 21.3715 43.6605 21.3092C43.6605 21.2468 43.6605 21.172 43.6605 21.0847C43.6605 20.4985 43.8226 20.0059 44.1468 19.6068C44.4836 19.1953 44.9513 18.8835 45.5499 18.6715C46.1485 18.4594 46.8407 18.3534 47.6264 18.3534C48.4745 18.3534 49.1791 18.4781 49.7403 18.7276C50.314 18.9645 50.7443 19.3075 51.0311 19.7565C51.318 20.2055 51.4614 20.748 51.4614 21.384V26.3789C51.4614 26.6158 51.5175 26.7842 51.6298 26.884C51.7545 26.9837 51.8979 27.0336 52.06 27.0336H52.7335V28.3431C52.5838 28.4055 52.3968 28.4679 52.1723 28.5302C51.9478 28.5926 51.6859 28.6237 51.3866 28.6237C51.0498 28.6237 50.763 28.5614 50.526 28.4367C50.3016 28.3244 50.1145 28.1623 49.9648 27.9503C49.8276 27.7258 49.7341 27.4764 49.6842 27.202H49.572C49.3475 27.4888 49.0731 27.7445 48.7488 27.969C48.4371 28.181 48.0754 28.3431 47.6638 28.4554C47.2523 28.5801 46.7908 28.6425 46.2795 28.6425ZM46.822 27.0336C47.2086 27.0336 47.564 26.9775 47.8883 26.8653C48.225 26.7405 48.5119 26.5722 48.7488 26.3602C48.9858 26.1357 49.1729 25.8738 49.3101 25.5745C49.4473 25.2627 49.5158 24.9259 49.5158 24.5643V23.9095C48.6553 23.9095 47.9008 23.9594 47.2523 24.0592C46.6037 24.1589 46.0986 24.346 45.737 24.6204C45.3753 24.8823 45.1945 25.2502 45.1945 25.7241C45.1945 26.011 45.2568 26.2542 45.3815 26.4537C45.5062 26.6408 45.6933 26.7842 45.9427 26.884C46.1922 26.9837 46.4853 27.0336 46.822 27.0336ZM56.5274 28.6425C55.9662 28.6425 55.5235 28.5364 55.1992 28.3244C54.8874 28.0999 54.6629 27.8193 54.5258 27.4826C54.401 27.1334 54.3387 26.7655 54.3387 26.3789V20.1867H53.104V18.5779H54.3761L54.7315 15.8279H56.2842V18.5779H58.0614V20.1867H56.2842V26.1544C56.2842 26.4412 56.3466 26.6595 56.4713 26.8091C56.596 26.9588 56.8018 27.0336 57.0887 27.0336H58.0614V28.3431C57.9367 28.393 57.7808 28.4367 57.5938 28.4741C57.4192 28.524 57.2383 28.5614 57.0512 28.5863C56.8642 28.6237 56.6896 28.6425 56.5274 28.6425ZM67.523 28.6425C66.5377 28.6425 65.7146 28.4616 65.0536 28.0999C64.3926 27.7258 63.8937 27.1583 63.557 26.3976C63.2327 25.6368 63.0706 24.6703 63.0706 23.4979C63.0706 22.3256 63.239 21.3653 63.5757 20.617C63.9124 19.8563 64.4113 19.2888 65.0723 18.9147C65.7458 18.5405 66.5689 18.3534 67.5417 18.3534C68.2151 18.3534 68.8013 18.4407 69.3001 18.6153C69.799 18.7775 70.223 19.0269 70.5722 19.3636C70.9214 19.6879 71.1771 20.0932 71.3392 20.5796C71.5138 21.066 71.6011 21.621 71.6011 22.2446H69.6369C69.6369 21.7207 69.5621 21.2905 69.4124 20.9537C69.2627 20.617 69.032 20.3676 68.7202 20.2055C68.4084 20.0309 68.0031 19.9436 67.5042 19.9436C66.9804 19.9436 66.5377 20.0683 66.176 20.3177C65.8144 20.5547 65.54 20.9226 65.3529 21.4214C65.1658 21.9078 65.0723 22.5501 65.0723 23.3483V23.6663C65.0723 24.4271 65.1596 25.0631 65.3342 25.5745C65.5213 26.0733 65.7956 26.4475 66.1573 26.6969C66.5315 26.9339 67.0054 27.0523 67.5791 27.0523C68.0779 27.0523 68.477 26.965 68.7763 26.7904C69.0881 26.6034 69.3189 26.3415 69.4685 26.0047C69.6306 25.6555 69.7117 25.2377 69.7117 24.7513H71.6011C71.6011 25.3375 71.5138 25.8675 71.3392 26.3415C71.1771 26.8154 70.9214 27.2269 70.5722 27.5761C70.2355 27.9129 69.8115 28.1748 69.3001 28.3618C68.7888 28.5489 68.1964 28.6425 67.523 28.6425ZM76.0577 28.6425C75.7459 28.6425 75.4092 28.605 75.0475 28.5302C74.6859 28.4554 74.3429 28.3182 74.0186 28.1187C73.7068 27.9191 73.4512 27.6447 73.2516 27.2955C73.0521 26.9339 72.9523 26.4662 72.9523 25.8925C72.9523 25.219 73.1082 24.664 73.42 24.2275C73.7318 23.791 74.1683 23.4481 74.7295 23.1986C75.2907 22.9492 75.958 22.7746 76.7312 22.6748C77.5169 22.575 78.3712 22.5252 79.2941 22.5252V21.5524C79.2941 21.2281 79.238 20.9413 79.1257 20.6918C79.026 20.4424 78.8326 20.2491 78.5458 20.1119C78.2714 19.9747 77.8723 19.9061 77.3485 19.9061C76.8247 19.9061 76.4132 19.9747 76.1139 20.1119C75.827 20.2366 75.6212 20.3988 75.4965 20.5983C75.3843 20.7854 75.3281 20.9912 75.3281 21.2157V21.4963H73.4574C73.4449 21.4339 73.4387 21.3715 73.4387 21.3092C73.4387 21.2468 73.4387 21.172 73.4387 21.0847C73.4387 20.4985 73.6008 20.0059 73.9251 19.6068C74.2618 19.1953 74.7295 18.8835 75.3281 18.6715C75.9268 18.4594 76.6189 18.3534 77.4047 18.3534C78.2527 18.3534 78.9574 18.4781 79.5186 18.7276C80.0923 18.9645 80.5225 19.3075 80.8094 19.7565C81.0962 20.2055 81.2397 20.748 81.2397 21.384V26.3789C81.2397 26.6158 81.2958 26.7842 81.408 26.884C81.5327 26.9837 81.6762 27.0336 81.8383 27.0336H82.5118V28.3431C82.3621 28.4055 82.175 28.4679 81.9505 28.5302C81.726 28.5926 81.4641 28.6237 81.1648 28.6237C80.8281 28.6237 80.5412 28.5614 80.3043 28.4367C80.0798 28.3244 79.8927 28.1623 79.7431 27.9503C79.6059 27.7258 79.5123 27.4764 79.4625 27.202H79.3502C79.1257 27.4888 78.8514 27.7445 78.5271 27.969C78.2153 28.181 77.8536 28.3431 77.4421 28.4554C77.0305 28.5801 76.5691 28.6425 76.0577 28.6425ZM76.6002 27.0336C76.9869 27.0336 77.3423 26.9775 77.6666 26.8653C78.0033 26.7405 78.2901 26.5722 78.5271 26.3602C78.7641 26.1357 78.9511 25.8738 79.0883 25.5745C79.2255 25.2627 79.2941 24.9259 79.2941 24.5643V23.9095C78.4336 23.9095 77.679 23.9594 77.0305 24.0592C76.382 24.1589 75.8769 24.346 75.5152 24.6204C75.1535 24.8823 74.9727 25.2502 74.9727 25.7241C74.9727 26.011 75.0351 26.2542 75.1598 26.4537C75.2845 26.6408 75.4716 26.7842 75.721 26.884C75.9704 26.9837 76.2635 27.0336 76.6002 27.0336ZM83.855 28.418V18.5779H85.4639L85.6322 19.981H85.7632C86.0001 19.6193 86.2807 19.32 86.605 19.083C86.9293 18.8461 87.2847 18.6652 87.6713 18.5405C88.0704 18.4158 88.5069 18.3534 88.9808 18.3534C89.6044 18.3534 90.1532 18.4657 90.6271 18.6902C91.101 18.9022 91.4689 19.2514 91.7308 19.7378C92.0052 20.2242 92.1424 20.8789 92.1424 21.702V28.418H90.1968V22.0014C90.1968 21.6272 90.1469 21.3154 90.0472 21.066C89.9599 20.8166 89.8289 20.617 89.6543 20.4674C89.4797 20.3177 89.2739 20.2117 89.037 20.1493C88.8 20.087 88.5381 20.0558 88.2512 20.0558C87.8023 20.0558 87.3907 20.168 87.0166 20.3925C86.6549 20.6045 86.3618 20.9039 86.1373 21.2905C85.9128 21.6771 85.8006 22.1323 85.8006 22.6561V28.418H83.855ZM98.6772 28.418V15.5847H100.772V28.418H98.6772ZM107.385 28.418V14.8926H109.331V19.7565H109.462C109.699 19.4572 109.967 19.2077 110.266 19.0082C110.566 18.7962 110.902 18.634 111.276 18.5218C111.651 18.4096 112.062 18.3534 112.511 18.3534C113.135 18.3534 113.683 18.4657 114.157 18.6902C114.631 18.9022 114.999 19.2514 115.261 19.7378C115.535 20.2242 115.673 20.8789 115.673 21.702V28.418H113.727V22.0014C113.727 21.6272 113.677 21.3154 113.577 21.066C113.49 20.8166 113.359 20.617 113.185 20.4674C113.01 20.3177 112.804 20.2117 112.567 20.1493C112.33 20.087 112.068 20.0558 111.782 20.0558C111.333 20.0558 110.921 20.1618 110.547 20.3738C110.185 20.5858 109.892 20.8852 109.668 21.2718C109.443 21.6584 109.331 22.1198 109.331 22.6561V28.418H107.385ZM122.187 28.6425C121.177 28.6425 120.329 28.4616 119.643 28.0999C118.97 27.7258 118.458 27.1583 118.109 26.3976C117.76 25.6368 117.585 24.6703 117.585 23.4979C117.585 22.3131 117.76 21.3466 118.109 20.5983C118.458 19.8375 118.976 19.2763 119.662 18.9147C120.348 18.5405 121.202 18.3534 122.225 18.3534C123.16 18.3534 123.94 18.5343 124.563 18.8959C125.199 19.2451 125.679 19.7814 126.004 20.5048C126.328 21.2281 126.49 22.1385 126.49 23.236V23.9843H119.587C119.612 24.6827 119.718 25.2689 119.905 25.7428C120.092 26.2043 120.373 26.5472 120.747 26.7717C121.133 26.9837 121.62 27.0897 122.206 27.0897C122.568 27.0897 122.892 27.0461 123.179 26.9588C123.466 26.859 123.709 26.7218 123.908 26.5472C124.108 26.3602 124.264 26.1419 124.376 25.8925C124.488 25.6306 124.544 25.3375 124.544 25.0132H126.453C126.453 25.5994 126.353 26.117 126.153 26.5659C125.954 27.0149 125.661 27.3953 125.274 27.7071C124.9 28.0064 124.451 28.2371 123.927 28.3993C123.403 28.5614 122.823 28.6425 122.187 28.6425ZM119.624 22.5626H124.451C124.451 22.0762 124.395 21.6709 124.283 21.3466C124.183 21.0099 124.033 20.7355 123.834 20.5235C123.634 20.3115 123.397 20.1618 123.123 20.0745C122.848 19.9747 122.537 19.9248 122.187 19.9248C121.664 19.9248 121.215 20.0184 120.84 20.2055C120.479 20.3925 120.198 20.6856 119.999 21.0847C119.799 21.4713 119.674 21.9639 119.624 22.5626ZM128.468 28.418V14.8926H130.413V28.418H128.468ZM132.925 31.6543V18.5779H134.515L134.684 19.9248H134.815C135.151 19.401 135.582 19.0082 136.105 18.7463C136.629 18.4844 137.215 18.3534 137.864 18.3534C138.675 18.3534 139.367 18.5343 139.94 18.8959C140.527 19.2576 140.976 19.8188 141.287 20.5796C141.599 21.3404 141.755 22.3256 141.755 23.5354C141.755 24.7077 141.593 25.6742 141.269 26.435C140.957 27.1833 140.514 27.7383 139.94 28.0999C139.367 28.4616 138.706 28.6425 137.957 28.6425C137.521 28.6425 137.116 28.5926 136.741 28.4928C136.367 28.393 136.031 28.2371 135.731 28.0251C135.444 27.8131 135.195 27.545 134.983 27.2207H134.871V31.6543H132.925ZM137.284 26.9588C137.87 26.9588 138.344 26.8466 138.706 26.6221C139.067 26.3851 139.329 26.0234 139.491 25.537C139.666 25.0507 139.753 24.4333 139.753 23.685V23.3483C139.753 22.5626 139.666 21.9265 139.491 21.4401C139.317 20.9537 139.049 20.5983 138.687 20.3738C138.338 20.1493 137.883 20.0371 137.321 20.0371C136.748 20.0371 136.28 20.168 135.918 20.4299C135.557 20.6794 135.289 21.0535 135.114 21.5524C134.952 22.0512 134.871 22.6561 134.871 23.367V23.6289C134.871 24.2151 134.927 24.7202 135.039 25.1442C135.151 25.5682 135.313 25.9174 135.526 26.1918C135.738 26.4537 135.993 26.647 136.293 26.7717C136.592 26.8964 136.922 26.9588 137.284 26.9588ZM148.661 31.8227C148.287 31.8227 147.975 31.7915 147.726 31.7292C147.477 31.6793 147.321 31.6481 147.258 31.6356V30.2326H148.194C148.468 30.2326 148.742 30.1702 149.017 30.0455C149.304 29.9208 149.559 29.7212 149.784 29.4469C150.008 29.1725 150.195 28.8295 150.345 28.418L146.51 18.5779H148.549L150.457 23.4792C150.545 23.7037 150.638 23.9843 150.738 24.3211C150.85 24.6578 150.956 25.0008 151.056 25.35C151.168 25.6992 151.262 26.011 151.337 26.2853H151.43C151.492 26.0983 151.555 25.8862 151.617 25.6493C151.692 25.3999 151.767 25.1442 151.842 24.8823C151.916 24.6204 151.991 24.371 152.066 24.134C152.141 23.8846 152.203 23.6725 152.253 23.4979L153.843 18.5779H155.826L152.496 28.0438C152.309 28.5676 152.104 29.0603 151.879 29.5217C151.655 29.9831 151.393 30.3822 151.093 30.719C150.807 31.0682 150.464 31.3363 150.064 31.5234C149.665 31.7229 149.198 31.8227 148.661 31.8227ZM161.395 28.6425C160.372 28.6425 159.506 28.4616 158.795 28.0999C158.096 27.7258 157.566 27.1583 157.205 26.3976C156.855 25.6368 156.681 24.6703 156.681 23.4979C156.681 22.3131 156.855 21.3466 157.205 20.5983C157.566 19.8375 158.096 19.2763 158.795 18.9147C159.506 18.5405 160.372 18.3534 161.395 18.3534C162.443 18.3534 163.316 18.5405 164.014 18.9147C164.712 19.2763 165.236 19.8375 165.585 20.5983C165.947 21.3466 166.128 22.3131 166.128 23.4979C166.128 24.6703 165.947 25.6368 165.585 26.3976C165.236 27.1583 164.712 27.7258 164.014 28.0999C163.316 28.4616 162.443 28.6425 161.395 28.6425ZM161.395 27.0336C162.019 27.0336 162.53 26.9151 162.929 26.6782C163.328 26.4288 163.621 26.0546 163.808 25.5557C164.008 25.0569 164.108 24.4271 164.108 23.6663V23.3296C164.108 22.5688 164.008 21.939 163.808 21.4401C163.621 20.9413 163.328 20.5734 162.929 20.3364C162.53 20.087 162.019 19.9623 161.395 19.9623C160.784 19.9623 160.279 20.087 159.88 20.3364C159.481 20.5734 159.181 20.9413 158.982 21.4401C158.795 21.939 158.701 22.5688 158.701 23.3296V23.6663C158.701 24.4271 158.795 25.0569 158.982 25.5557C159.181 26.0546 159.481 26.4288 159.88 26.6782C160.279 26.9151 160.784 27.0336 161.395 27.0336ZM171.198 28.6425C170.25 28.6425 169.483 28.393 168.897 27.8942C168.311 27.3828 168.017 26.5161 168.017 25.2938V18.5779H169.963V24.9945C169.963 25.3687 170.007 25.6805 170.094 25.9299C170.194 26.1793 170.331 26.3789 170.506 26.5285C170.68 26.6782 170.886 26.7842 171.123 26.8466C171.36 26.9089 171.622 26.9401 171.909 26.9401C172.358 26.9401 172.763 26.8341 173.125 26.6221C173.499 26.3976 173.798 26.092 174.023 25.7054C174.247 25.3063 174.359 24.8511 174.359 24.3398V18.5779H176.305V28.418H174.715L174.546 27.0149H174.415C174.178 27.3766 173.898 27.6759 173.574 27.9129C173.249 28.1498 172.888 28.3307 172.489 28.4554C172.102 28.5801 171.672 28.6425 171.198 28.6425ZM184.486 28.418L181.531 18.5779H183.551L184.991 23.9656C185.066 24.2275 185.129 24.5019 185.179 24.7887C185.241 25.0756 185.297 25.3313 185.347 25.5557C185.397 25.7802 185.434 25.9361 185.459 26.0234H185.571C185.621 25.7989 185.677 25.5433 185.74 25.2564C185.802 24.9696 185.858 24.7077 185.908 24.4707C185.958 24.2213 185.995 24.0342 186.02 23.9095L187.33 18.5779H189.425L190.772 23.9282C190.822 24.1278 190.872 24.3585 190.922 24.6204C190.984 24.8698 191.04 25.1192 191.09 25.3687C191.152 25.6181 191.196 25.8364 191.221 26.0234H191.333C191.371 25.8488 191.414 25.643 191.464 25.4061C191.527 25.1567 191.589 24.9072 191.651 24.6578C191.714 24.4084 191.77 24.1776 191.82 23.9656L193.241 18.5779H195.093L192.156 28.418H190.136L188.939 23.5167C188.889 23.2797 188.826 23.0053 188.752 22.6935C188.677 22.3817 188.608 22.07 188.546 21.7582C188.483 21.4464 188.434 21.172 188.396 20.935H188.284C188.259 21.0722 188.222 21.2718 188.172 21.5337C188.134 21.7956 188.078 22.0949 188.003 22.4316C187.929 22.7684 187.841 23.13 187.741 23.5167L186.507 28.418H184.486ZM196.501 16.8756V14.8926H198.446V16.8756H196.501ZM196.501 28.418V18.5779H198.446V28.418H196.501ZM203.409 28.6425C202.848 28.6425 202.405 28.5364 202.081 28.3244C201.769 28.0999 201.545 27.8193 201.407 27.4826C201.283 27.1334 201.22 26.7655 201.22 26.3789V20.1867H199.986V18.5779H201.258L201.613 15.8279H203.166V18.5779H204.943V20.1867H203.166V26.1544C203.166 26.4412 203.228 26.6595 203.353 26.8091C203.478 26.9588 203.683 27.0336 203.97 27.0336H204.943V28.3431C204.818 28.393 204.663 28.4367 204.475 28.4741C204.301 28.524 204.12 28.5614 203.933 28.5863C203.746 28.6237 203.571 28.6425 203.409 28.6425ZM206.658 28.418V14.8926H208.604V19.7565H208.735C208.972 19.4572 209.24 19.2077 209.539 19.0082C209.839 18.7962 210.175 18.634 210.549 18.5218C210.924 18.4096 211.335 18.3534 211.784 18.3534C212.408 18.3534 212.956 18.4657 213.43 18.6902C213.904 18.9022 214.272 19.2514 214.534 19.7378C214.808 20.2242 214.946 20.8789 214.946 21.702V28.418H213V22.0014C213 21.6272 212.95 21.3154 212.85 21.066C212.763 20.8166 212.632 20.617 212.458 20.4674C212.283 20.3177 212.077 20.2117 211.84 20.1493C211.603 20.087 211.341 20.0558 211.055 20.0558C210.606 20.0558 210.194 20.1618 209.82 20.3738C209.458 20.5858 209.165 20.8852 208.941 21.2718C208.716 21.6584 208.604 22.1198 208.604 22.6561V28.418H206.658ZM220.656 24.9758V24.003C220.656 23.5042 220.731 23.0926 220.88 22.7684C221.03 22.4316 221.223 22.1385 221.46 21.8891C221.697 21.6397 221.947 21.4152 222.209 21.2157C222.483 21.0161 222.732 20.8103 222.957 20.5983C223.194 20.3863 223.387 20.1493 223.537 19.8874C223.699 19.6131 223.78 19.295 223.78 18.9334C223.78 18.7837 223.755 18.6091 223.705 18.4096C223.668 18.1975 223.574 17.9918 223.425 17.7922C223.287 17.5927 223.075 17.4305 222.789 17.3058C222.502 17.1686 222.115 17.1 221.629 17.1C221.117 17.1 220.706 17.1811 220.394 17.3432C220.082 17.5054 219.845 17.7049 219.683 17.9419C219.534 18.1788 219.434 18.422 219.384 18.6715C219.334 18.9084 219.309 19.1142 219.309 19.2888C219.309 19.3761 219.309 19.4634 219.309 19.5507C219.309 19.6255 219.315 19.7066 219.328 19.7939H217.345C217.332 19.744 217.32 19.6692 217.307 19.5694C217.295 19.4572 217.289 19.32 217.289 19.1578C217.289 18.8086 217.339 18.4594 217.438 18.1102C217.551 17.7486 217.713 17.4056 217.925 17.0813C218.149 16.7446 218.436 16.4515 218.785 16.2021C219.147 15.9402 219.571 15.7344 220.057 15.5847C220.556 15.4351 221.13 15.3603 221.778 15.3603C222.34 15.3603 222.845 15.4226 223.294 15.5473C223.743 15.6596 224.123 15.8217 224.435 16.0337C224.759 16.2457 225.027 16.4952 225.239 16.782C225.451 17.0564 225.607 17.3557 225.707 17.68C225.819 18.0042 225.875 18.341 225.875 18.6902C225.875 19.2763 225.794 19.7752 225.632 20.1867C225.47 20.5858 225.258 20.9288 224.996 21.2157C224.747 21.49 224.478 21.7395 224.192 21.9639C223.905 22.176 223.63 22.388 223.369 22.6C223.107 22.7995 222.895 23.0303 222.732 23.2922C222.57 23.5416 222.489 23.8534 222.489 24.2275V24.9758H220.656ZM220.544 28.418V26.2479H222.602V28.418H220.544Z" fill="white"/>
</svg>
