<svg width="242" height="36" viewBox="0 0 242 36" fill="none" xmlns="http://www.w3.org/2000/svg">
<path d="M0.328125 19.4954C0.328125 9.16365 8.70368 0.788086 19.0354 0.788086H219.555C231.501 0.788086 241.185 10.4723 241.185 22.4184C241.185 34.3645 231.501 44.0488 219.555 44.0488H0.328125V19.4954Z" fill="#191919"/>
<path d="M17.9993 28.418L14.4636 15.5847H16.6898L18.8785 24.0405C18.9159 24.1776 18.9596 24.3647 19.0095 24.6017C19.0594 24.8386 19.103 25.0881 19.1404 25.35C19.1903 25.5994 19.234 25.8301 19.2714 26.0421H19.3836C19.421 25.88 19.4522 25.7054 19.4772 25.5183C19.5021 25.3313 19.5333 25.1442 19.5707 24.9571C19.6081 24.77 19.6393 24.5954 19.6642 24.4333C19.7016 24.2712 19.7266 24.1402 19.7391 24.0405L21.7594 15.5847H24.4533L26.4924 24.0405C26.5298 24.1776 26.5735 24.3647 26.6233 24.6017C26.6732 24.8386 26.7169 25.0881 26.7543 25.35C26.8042 25.5994 26.8478 25.8301 26.8853 26.0421H26.9975C27.0224 25.8925 27.0536 25.7241 27.091 25.537C27.1284 25.35 27.1659 25.1691 27.2033 24.9945C27.2407 24.8075 27.2781 24.6329 27.3155 24.4707C27.3654 24.3086 27.4028 24.1652 27.4278 24.0405L29.6165 15.5847H31.5995L28.0638 28.418H25.6132L23.4618 19.85C23.4244 19.6629 23.3807 19.4509 23.3309 19.214C23.281 18.9645 23.2311 18.7151 23.1812 18.4657C23.1438 18.2038 23.1126 17.9793 23.0877 17.7922H22.9941C22.9692 17.9918 22.938 18.2225 22.9006 18.4844C22.8632 18.7463 22.8195 19.002 22.7696 19.2514C22.7198 19.4883 22.6761 19.6879 22.6387 19.85L20.5248 28.418H17.9993ZM33.0676 28.418V14.8926H35.0131V19.7565H35.1441C35.3811 19.4572 35.6492 19.2077 35.9485 19.0082C36.2478 18.7962 36.5846 18.634 36.9587 18.5218C37.3329 18.4096 37.7444 18.3534 38.1934 18.3534C38.817 18.3534 39.3657 18.4657 39.8396 18.6902C40.3135 18.9022 40.6815 19.2514 40.9434 19.7378C41.2177 20.2242 41.3549 20.8789 41.3549 21.702V28.418H39.4094V22.0014C39.4094 21.6272 39.3595 21.3154 39.2597 21.066C39.1724 20.8166 39.0415 20.617 38.8669 20.4674C38.6922 20.3177 38.4865 20.2117 38.2495 20.1493C38.0125 20.087 37.7506 20.0558 37.4638 20.0558C37.0148 20.0558 36.6033 20.1618 36.2291 20.3738C35.8674 20.5858 35.5744 20.8852 35.3499 21.2718C35.1254 21.6584 35.0131 22.1198 35.0131 22.6561V28.418H33.0676ZM46.2795 28.6425C45.9677 28.6425 45.631 28.605 45.2693 28.5302C44.9076 28.4554 44.5646 28.3182 44.2404 28.1187C43.9286 27.9191 43.6729 27.6447 43.4734 27.2955C43.2738 26.9339 43.1741 26.4662 43.1741 25.8925C43.1741 25.219 43.33 24.664 43.6417 24.2275C43.9535 23.791 44.39 23.4481 44.9513 23.1986C45.5125 22.9492 46.1797 22.7746 46.9529 22.6748C47.7387 22.575 48.593 22.5252 49.5158 22.5252V21.5524C49.5158 21.2281 49.4597 20.9413 49.3475 20.6918C49.2477 20.4424 49.0544 20.2491 48.7676 20.1119C48.4932 19.9747 48.0941 19.9061 47.5703 19.9061C47.0465 19.9061 46.6349 19.9747 46.3356 20.1119C46.0488 20.2366 45.843 20.3988 45.7183 20.5983C45.606 20.7854 45.5499 20.9912 45.5499 21.2157V21.4963H43.6792C43.6667 21.4339 43.6605 21.3715 43.6605 21.3092C43.6605 21.2468 43.6605 21.172 43.6605 21.0847C43.6605 20.4985 43.8226 20.0059 44.1468 19.6068C44.4836 19.1953 44.9513 18.8835 45.5499 18.6715C46.1485 18.4594 46.8407 18.3534 47.6264 18.3534C48.4745 18.3534 49.1791 18.4781 49.7403 18.7276C50.314 18.9645 50.7443 19.3075 51.0311 19.7565C51.318 20.2055 51.4614 20.748 51.4614 21.384V26.3789C51.4614 26.6158 51.5175 26.7842 51.6298 26.884C51.7545 26.9837 51.8979 27.0336 52.06 27.0336H52.7335V28.3431C52.5838 28.4055 52.3968 28.4679 52.1723 28.5302C51.9478 28.5926 51.6859 28.6237 51.3866 28.6237C51.0498 28.6237 50.763 28.5614 50.526 28.4367C50.3016 28.3244 50.1145 28.1623 49.9648 27.9503C49.8276 27.7258 49.7341 27.4764 49.6842 27.202H49.572C49.3475 27.4888 49.0731 27.7445 48.7488 27.969C48.4371 28.181 48.0754 28.3431 47.6638 28.4554C47.2523 28.5801 46.7908 28.6425 46.2795 28.6425ZM46.822 27.0336C47.2086 27.0336 47.564 26.9775 47.8883 26.8653C48.225 26.7405 48.5119 26.5722 48.7488 26.3602C48.9858 26.1357 49.1729 25.8738 49.3101 25.5745C49.4473 25.2627 49.5158 24.9259 49.5158 24.5643V23.9095C48.6553 23.9095 47.9008 23.9594 47.2523 24.0592C46.6037 24.1589 46.0986 24.346 45.737 24.6204C45.3753 24.8823 45.1945 25.2502 45.1945 25.7241C45.1945 26.011 45.2568 26.2542 45.3815 26.4537C45.5062 26.6408 45.6933 26.7842 45.9427 26.884C46.1922 26.9837 46.4853 27.0336 46.822 27.0336ZM56.5274 28.6425C55.9662 28.6425 55.5235 28.5364 55.1992 28.3244C54.8874 28.0999 54.6629 27.8193 54.5258 27.4826C54.401 27.1334 54.3387 26.7655 54.3387 26.3789V20.1867H53.104V18.5779H54.3761L54.7315 15.8279H56.2842V18.5779H58.0614V20.1867H56.2842V26.1544C56.2842 26.4412 56.3466 26.6595 56.4713 26.8091C56.596 26.9588 56.8018 27.0336 57.0887 27.0336H58.0614V28.3431C57.9367 28.393 57.7808 28.4367 57.5938 28.4741C57.4192 28.524 57.2383 28.5614 57.0512 28.5863C56.8642 28.6237 56.6896 28.6425 56.5274 28.6425ZM67.523 28.6425C66.5377 28.6425 65.7146 28.4616 65.0536 28.0999C64.3926 27.7258 63.8937 27.1583 63.557 26.3976C63.2327 25.6368 63.0706 24.6703 63.0706 23.4979C63.0706 22.3256 63.239 21.3653 63.5757 20.617C63.9124 19.8563 64.4113 19.2888 65.0723 18.9147C65.7458 18.5405 66.5689 18.3534 67.5417 18.3534C68.2151 18.3534 68.8013 18.4407 69.3001 18.6153C69.799 18.7775 70.223 19.0269 70.5722 19.3636C70.9214 19.6879 71.1771 20.0932 71.3392 20.5796C71.5138 21.066 71.6011 21.621 71.6011 22.2446H69.6369C69.6369 21.7207 69.5621 21.2905 69.4124 20.9537C69.2627 20.617 69.032 20.3676 68.7202 20.2055C68.4084 20.0309 68.0031 19.9436 67.5042 19.9436C66.9804 19.9436 66.5377 20.0683 66.176 20.3177C65.8144 20.5547 65.54 20.9226 65.3529 21.4214C65.1658 21.9078 65.0723 22.5501 65.0723 23.3483V23.6663C65.0723 24.4271 65.1596 25.0631 65.3342 25.5745C65.5213 26.0733 65.7956 26.4475 66.1573 26.6969C66.5315 26.9339 67.0054 27.0523 67.5791 27.0523C68.0779 27.0523 68.477 26.965 68.7763 26.7904C69.0881 26.6034 69.3189 26.3415 69.4685 26.0047C69.6306 25.6555 69.7117 25.2377 69.7117 24.7513H71.6011C71.6011 25.3375 71.5138 25.8675 71.3392 26.3415C71.1771 26.8154 70.9214 27.2269 70.5722 27.5761C70.2355 27.9129 69.8115 28.1748 69.3001 28.3618C68.7888 28.5489 68.1964 28.6425 67.523 28.6425ZM76.0577 28.6425C75.7459 28.6425 75.4092 28.605 75.0475 28.5302C74.6859 28.4554 74.3429 28.3182 74.0186 28.1187C73.7068 27.9191 73.4512 27.6447 73.2516 27.2955C73.0521 26.9339 72.9523 26.4662 72.9523 25.8925C72.9523 25.219 73.1082 24.664 73.42 24.2275C73.7318 23.791 74.1683 23.4481 74.7295 23.1986C75.2907 22.9492 75.958 22.7746 76.7312 22.6748C77.5169 22.575 78.3712 22.5252 79.2941 22.5252V21.5524C79.2941 21.2281 79.238 20.9413 79.1257 20.6918C79.026 20.4424 78.8326 20.2491 78.5458 20.1119C78.2714 19.9747 77.8723 19.9061 77.3485 19.9061C76.8247 19.9061 76.4132 19.9747 76.1139 20.1119C75.827 20.2366 75.6212 20.3988 75.4965 20.5983C75.3843 20.7854 75.3281 20.9912 75.3281 21.2157V21.4963H73.4574C73.4449 21.4339 73.4387 21.3715 73.4387 21.3092C73.4387 21.2468 73.4387 21.172 73.4387 21.0847C73.4387 20.4985 73.6008 20.0059 73.9251 19.6068C74.2618 19.1953 74.7295 18.8835 75.3281 18.6715C75.9268 18.4594 76.6189 18.3534 77.4047 18.3534C78.2527 18.3534 78.9574 18.4781 79.5186 18.7276C80.0923 18.9645 80.5225 19.3075 80.8094 19.7565C81.0962 20.2055 81.2397 20.748 81.2397 21.384V26.3789C81.2397 26.6158 81.2958 26.7842 81.408 26.884C81.5327 26.9837 81.6762 27.0336 81.8383 27.0336H82.5118V28.3431C82.3621 28.4055 82.175 28.4679 81.9505 28.5302C81.726 28.5926 81.4641 28.6237 81.1648 28.6237C80.8281 28.6237 80.5412 28.5614 80.3043 28.4367C80.0798 28.3244 79.8927 28.1623 79.7431 27.9503C79.6059 27.7258 79.5123 27.4764 79.4625 27.202H79.3502C79.1257 27.4888 78.8514 27.7445 78.5271 27.969C78.2153 28.181 77.8536 28.3431 77.4421 28.4554C77.0305 28.5801 76.5691 28.6425 76.0577 28.6425ZM76.6002 27.0336C76.9869 27.0336 77.3423 26.9775 77.6666 26.8653C78.0033 26.7405 78.2901 26.5722 78.5271 26.3602C78.7641 26.1357 78.9511 25.8738 79.0883 25.5745C79.2255 25.2627 79.2941 24.9259 79.2941 24.5643V23.9095C78.4336 23.9095 77.679 23.9594 77.0305 24.0592C76.382 24.1589 75.8769 24.346 75.5152 24.6204C75.1535 24.8823 74.9727 25.2502 74.9727 25.7241C74.9727 26.011 75.0351 26.2542 75.1598 26.4537C75.2845 26.6408 75.4716 26.7842 75.721 26.884C75.9704 26.9837 76.2635 27.0336 76.6002 27.0336ZM83.855 28.418V18.5779H85.4639L85.6322 19.981H85.7632C86.0001 19.6193 86.2807 19.32 86.605 19.083C86.9293 18.8461 87.2847 18.6652 87.6713 18.5405C88.0704 18.4158 88.5069 18.3534 88.9808 18.3534C89.6044 18.3534 90.1532 18.4657 90.6271 18.6902C91.101 18.9022 91.4689 19.2514 91.7308 19.7378C92.0052 20.2242 92.1424 20.8789 92.1424 21.702V28.418H90.1968V22.0014C90.1968 21.6272 90.1469 21.3154 90.0472 21.066C89.9599 20.8166 89.8289 20.617 89.6543 20.4674C89.4797 20.3177 89.2739 20.2117 89.037 20.1493C88.8 20.087 88.5381 20.0558 88.2512 20.0558C87.8023 20.0558 87.3907 20.168 87.0166 20.3925C86.6549 20.6045 86.3618 20.9039 86.1373 21.2905C85.9128 21.6771 85.8006 22.1323 85.8006 22.6561V28.418H83.855ZM98.4153 16.8756V14.8926H100.361V16.8756H98.4153ZM98.4153 28.418V18.5779H100.361V28.418H98.4153ZM106.709 28.418V14.8926H108.655V19.7565H108.786C109.023 19.4572 109.291 19.2077 109.59 19.0082C109.89 18.7962 110.226 18.634 110.6 18.5218C110.975 18.4096 111.386 18.3534 111.835 18.3534C112.459 18.3534 113.008 18.4657 113.481 18.6902C113.955 18.9022 114.323 19.2514 114.585 19.7378C114.86 20.2242 114.997 20.8789 114.997 21.702V28.418H113.051V22.0014C113.051 21.6272 113.001 21.3154 112.901 21.066C112.814 20.8166 112.683 20.617 112.509 20.4674C112.334 20.3177 112.128 20.2117 111.891 20.1493C111.654 20.087 111.392 20.0558 111.106 20.0558C110.657 20.0558 110.245 20.1618 109.871 20.3738C109.509 20.5858 109.216 20.8852 108.992 21.2718C108.767 21.6584 108.655 22.1198 108.655 22.6561V28.418H106.709ZM121.511 28.6425C120.501 28.6425 119.653 28.4616 118.967 28.0999C118.294 27.7258 117.782 27.1583 117.433 26.3976C117.084 25.6368 116.909 24.6703 116.909 23.4979C116.909 22.3131 117.084 21.3466 117.433 20.5983C117.782 19.8375 118.3 19.2763 118.986 18.9147C119.672 18.5405 120.526 18.3534 121.549 18.3534C122.484 18.3534 123.264 18.5343 123.887 18.8959C124.523 19.2451 125.003 19.7814 125.328 20.5048C125.652 21.2281 125.814 22.1385 125.814 23.236V23.9843H118.911C118.936 24.6827 119.042 25.2689 119.229 25.7428C119.416 26.2043 119.697 26.5472 120.071 26.7717C120.458 26.9837 120.944 27.0897 121.53 27.0897C121.892 27.0897 122.216 27.0461 122.503 26.9588C122.79 26.859 123.033 26.7218 123.232 26.5472C123.432 26.3602 123.588 26.1419 123.7 25.8925C123.812 25.6306 123.869 25.3375 123.869 25.0132H125.777C125.777 25.5994 125.677 26.117 125.477 26.5659C125.278 27.0149 124.985 27.3953 124.598 27.7071C124.224 28.0064 123.775 28.2371 123.251 28.3993C122.727 28.5614 122.147 28.6425 121.511 28.6425ZM118.948 22.5626H123.775C123.775 22.0762 123.719 21.6709 123.607 21.3466C123.507 21.0099 123.357 20.7355 123.158 20.5235C122.958 20.3115 122.721 20.1618 122.447 20.0745C122.172 19.9747 121.861 19.9248 121.511 19.9248C120.988 19.9248 120.539 20.0184 120.164 20.2055C119.803 20.3925 119.522 20.6856 119.323 21.0847C119.123 21.4713 118.998 21.9639 118.948 22.5626ZM127.792 28.418V14.8926H129.737V28.418H127.792ZM132.249 31.6543V18.5779H133.839L134.008 19.9248H134.139C134.475 19.401 134.906 19.0082 135.429 18.7463C135.953 18.4844 136.539 18.3534 137.188 18.3534C137.999 18.3534 138.691 18.5343 139.264 18.8959C139.851 19.2576 140.3 19.8188 140.611 20.5796C140.923 21.3404 141.079 22.3256 141.079 23.5354C141.079 24.7077 140.917 25.6742 140.593 26.435C140.281 27.1833 139.838 27.7383 139.264 28.0999C138.691 28.4616 138.03 28.6425 137.282 28.6425C136.845 28.6425 136.44 28.5926 136.066 28.4928C135.691 28.393 135.355 28.2371 135.055 28.0251C134.768 27.8131 134.519 27.545 134.307 27.2207H134.195V31.6543H132.249ZM136.608 26.9588C137.194 26.9588 137.668 26.8466 138.03 26.6221C138.391 26.3851 138.653 26.0234 138.816 25.537C138.99 25.0507 139.077 24.4333 139.077 23.685V23.3483C139.077 22.5626 138.99 21.9265 138.816 21.4401C138.641 20.9537 138.373 20.5983 138.011 20.3738C137.662 20.1493 137.207 20.0371 136.645 20.0371C136.072 20.0371 135.604 20.168 135.242 20.4299C134.881 20.6794 134.613 21.0535 134.438 21.5524C134.276 22.0512 134.195 22.6561 134.195 23.367V23.6289C134.195 24.2151 134.251 24.7202 134.363 25.1442C134.475 25.5682 134.638 25.9174 134.85 26.1918C135.062 26.4537 135.317 26.647 135.617 26.7717C135.916 26.8964 136.246 26.9588 136.608 26.9588ZM147.985 31.8227C147.611 31.8227 147.3 31.7915 147.05 31.7292C146.801 31.6793 146.645 31.6481 146.582 31.6356V30.2326H147.518C147.792 30.2326 148.067 30.1702 148.341 30.0455C148.628 29.9208 148.883 29.7212 149.108 29.4469C149.332 29.1725 149.519 28.8295 149.669 28.418L145.834 18.5779H147.873L149.781 23.4792C149.869 23.7037 149.962 23.9843 150.062 24.3211C150.174 24.6578 150.28 25.0008 150.38 25.35C150.492 25.6992 150.586 26.011 150.661 26.2853H150.754C150.817 26.0983 150.879 25.8862 150.941 25.6493C151.016 25.3999 151.091 25.1442 151.166 24.8823C151.241 24.6204 151.315 24.371 151.39 24.134C151.465 23.8846 151.527 23.6725 151.577 23.4979L153.167 18.5779H155.15L151.82 28.0438C151.633 28.5676 151.428 29.0603 151.203 29.5217C150.979 29.9831 150.717 30.3822 150.417 30.719C150.131 31.0682 149.788 31.3363 149.389 31.5234C148.989 31.7229 148.522 31.8227 147.985 31.8227ZM160.719 28.6425C159.696 28.6425 158.83 28.4616 158.119 28.0999C157.42 27.7258 156.89 27.1583 156.529 26.3976C156.179 25.6368 156.005 24.6703 156.005 23.4979C156.005 22.3131 156.179 21.3466 156.529 20.5983C156.89 19.8375 157.42 19.2763 158.119 18.9147C158.83 18.5405 159.696 18.3534 160.719 18.3534C161.767 18.3534 162.64 18.5405 163.338 18.9147C164.036 19.2763 164.56 19.8375 164.909 20.5983C165.271 21.3466 165.452 22.3131 165.452 23.4979C165.452 24.6703 165.271 25.6368 164.909 26.3976C164.56 27.1583 164.036 27.7258 163.338 28.0999C162.64 28.4616 161.767 28.6425 160.719 28.6425ZM160.719 27.0336C161.343 27.0336 161.854 26.9151 162.253 26.6782C162.652 26.4288 162.945 26.0546 163.132 25.5557C163.332 25.0569 163.432 24.4271 163.432 23.6663V23.3296C163.432 22.5688 163.332 21.939 163.132 21.4401C162.945 20.9413 162.652 20.5734 162.253 20.3364C161.854 20.087 161.343 19.9623 160.719 19.9623C160.108 19.9623 159.603 20.087 159.204 20.3364C158.805 20.5734 158.505 20.9413 158.306 21.4401C158.119 21.939 158.025 22.5688 158.025 23.3296V23.6663C158.025 24.4271 158.119 25.0569 158.306 25.5557C158.505 26.0546 158.805 26.4288 159.204 26.6782C159.603 26.9151 160.108 27.0336 160.719 27.0336ZM170.522 28.6425C169.574 28.6425 168.807 28.393 168.221 27.8942C167.635 27.3828 167.342 26.5161 167.342 25.2938V18.5779H169.287V24.9945C169.287 25.3687 169.331 25.6805 169.418 25.9299C169.518 26.1793 169.655 26.3789 169.83 26.5285C170.004 26.6782 170.21 26.7842 170.447 26.8466C170.684 26.9089 170.946 26.9401 171.233 26.9401C171.682 26.9401 172.087 26.8341 172.449 26.6221C172.823 26.3976 173.122 26.092 173.347 25.7054C173.571 25.3063 173.683 24.8511 173.683 24.3398V18.5779H175.629V28.418H174.039L173.87 27.0149H173.739C173.502 27.3766 173.222 27.6759 172.898 27.9129C172.573 28.1498 172.212 28.3307 171.813 28.4554C171.426 28.5801 170.996 28.6425 170.522 28.6425ZM183.81 28.418L180.855 18.5779H182.875L184.316 23.9656C184.39 24.2275 184.453 24.5019 184.503 24.7887C184.565 25.0756 184.621 25.3313 184.671 25.5557C184.721 25.7802 184.758 25.9361 184.783 26.0234H184.895C184.945 25.7989 185.001 25.5433 185.064 25.2564C185.126 24.9696 185.182 24.7077 185.232 24.4707C185.282 24.2213 185.319 24.0342 185.344 23.9095L186.654 18.5779H188.749L190.096 23.9282C190.146 24.1278 190.196 24.3585 190.246 24.6204C190.308 24.8698 190.364 25.1192 190.414 25.3687C190.476 25.6181 190.52 25.8364 190.545 26.0234H190.657C190.695 25.8488 190.738 25.643 190.788 25.4061C190.851 25.1567 190.913 24.9072 190.975 24.6578C191.038 24.4084 191.094 24.1776 191.144 23.9656L192.565 18.5779H194.417L191.48 28.418H189.46L188.263 23.5167C188.213 23.2797 188.151 23.0053 188.076 22.6935C188.001 22.3817 187.932 22.07 187.87 21.7582C187.808 21.4464 187.758 21.172 187.72 20.935H187.608C187.583 21.0722 187.546 21.2718 187.496 21.5337C187.458 21.7956 187.402 22.0949 187.327 22.4316C187.253 22.7684 187.165 23.13 187.065 23.5167L185.831 28.418H183.81ZM195.825 16.8756V14.8926H197.77V16.8756H195.825ZM195.825 28.418V18.5779H197.77V28.418H195.825ZM202.733 28.6425C202.172 28.6425 201.729 28.5364 201.405 28.3244C201.093 28.0999 200.869 27.8193 200.731 27.4826C200.607 27.1334 200.544 26.7655 200.544 26.3789V20.1867H199.31V18.5779H200.582L200.937 15.8279H202.49V18.5779H204.267V20.1867H202.49V26.1544C202.49 26.4412 202.552 26.6595 202.677 26.8091C202.802 26.9588 203.008 27.0336 203.294 27.0336H204.267V28.3431C204.142 28.393 203.987 28.4367 203.799 28.4741C203.625 28.524 203.444 28.5614 203.257 28.5863C203.07 28.6237 202.895 28.6425 202.733 28.6425ZM205.982 28.418V14.8926H207.928V19.7565H208.059C208.296 19.4572 208.564 19.2077 208.863 19.0082C209.163 18.7962 209.499 18.634 209.874 18.5218C210.248 18.4096 210.659 18.3534 211.108 18.3534C211.732 18.3534 212.281 18.4657 212.754 18.6902C213.228 18.9022 213.596 19.2514 213.858 19.7378C214.133 20.2242 214.27 20.8789 214.27 21.702V28.418H212.324V22.0014C212.324 21.6272 212.274 21.3154 212.175 21.066C212.087 20.8166 211.956 20.617 211.782 20.4674C211.607 20.3177 211.401 20.2117 211.164 20.1493C210.927 20.087 210.665 20.0558 210.379 20.0558C209.93 20.0558 209.518 20.1618 209.144 20.3738C208.782 20.5858 208.489 20.8852 208.265 21.2718C208.04 21.6584 207.928 22.1198 207.928 22.6561V28.418H205.982ZM219.98 24.9758V24.003C219.98 23.5042 220.055 23.0926 220.204 22.7684C220.354 22.4316 220.547 22.1385 220.784 21.8891C221.021 21.6397 221.271 21.4152 221.533 21.2157C221.807 21.0161 222.057 20.8103 222.281 20.5983C222.518 20.3863 222.711 20.1493 222.861 19.8874C223.023 19.6131 223.104 19.295 223.104 18.9334C223.104 18.7837 223.079 18.6091 223.029 18.4096C222.992 18.1975 222.898 17.9918 222.749 17.7922C222.611 17.5927 222.399 17.4305 222.113 17.3058C221.826 17.1686 221.439 17.1 220.953 17.1C220.441 17.1 220.03 17.1811 219.718 17.3432C219.406 17.5054 219.169 17.7049 219.007 17.9419C218.858 18.1788 218.758 18.422 218.708 18.6715C218.658 18.9084 218.633 19.1142 218.633 19.2888C218.633 19.3761 218.633 19.4634 218.633 19.5507C218.633 19.6255 218.639 19.7066 218.652 19.7939H216.669C216.656 19.744 216.644 19.6692 216.631 19.5694C216.619 19.4572 216.613 19.32 216.613 19.1578C216.613 18.8086 216.663 18.4594 216.762 18.1102C216.875 17.7486 217.037 17.4056 217.249 17.0813C217.473 16.7446 217.76 16.4515 218.109 16.2021C218.471 15.9402 218.895 15.7344 219.381 15.5847C219.88 15.4351 220.454 15.3603 221.102 15.3603C221.664 15.3603 222.169 15.4226 222.618 15.5473C223.067 15.6596 223.447 15.8217 223.759 16.0337C224.083 16.2457 224.351 16.4952 224.563 16.782C224.775 17.0564 224.931 17.3557 225.031 17.68C225.143 18.0042 225.199 18.341 225.199 18.6902C225.199 19.2763 225.118 19.7752 224.956 20.1867C224.794 20.5858 224.582 20.9288 224.32 21.2157C224.071 21.49 223.803 21.7395 223.516 21.9639C223.229 22.176 222.954 22.388 222.693 22.6C222.431 22.7995 222.219 23.0303 222.057 23.2922C221.894 23.5416 221.813 23.8534 221.813 24.2275V24.9758H219.98ZM219.868 28.418V26.2479H221.926V28.418H219.868Z" fill="white"/>
</svg>
