<svg width="172" height="32" viewBox="0 0 172 32" fill="none" xmlns="http://www.w3.org/2000/svg"
    data-sentry-element="svg" data-sentry-source-file="LogoFull.tsx">
    <g clip-path="url(#clip0_4_8941)" data-sentry-element="g" data-sentry-source-file="LogoFull.tsx">
        <path
            d="M13.216 0H11.5V17.162H13.216V12.7L14.08 10.028C14.76 7.926 15.684 5.912 16.836 4.028C17.162 3.494 17.334 2.88 17.334 2.256V0H13.214H13.216Z"
            fill="black" data-sentry-element="path" data-sentry-source-file="LogoFull.tsx"></path>
        <path
            d="M24.9223 3.2079L23.7083 1.9939L11.5723 14.1299L12.7863 15.3439L15.9423 12.1879L18.4423 10.9099C20.4083 9.9039 22.4863 9.1339 24.6343 8.6159C25.2423 8.4699 25.7983 8.1579 26.2403 7.7159L27.8343 6.1219L24.9223 3.2099V3.2079Z"
            fill="black" data-sentry-element="path" data-sentry-source-file="LogoFull.tsx"></path>
        <path
            d="M31.9238 13.2919V11.5759H14.7598V13.2919H19.2218L21.8938 14.1559C23.9958 14.8359 26.0098 15.7599 27.8938 16.9119C28.4278 17.2379 29.0418 17.4099 29.6658 17.4099H31.9218V13.2899L31.9238 13.2919Z"
            fill="black" data-sentry-element="path" data-sentry-source-file="LogoFull.tsx"></path>
        <path
            d="M29.1956 25.3L30.4096 24.086L18.2736 11.95L17.0596 13.164L20.2156 16.32L21.4936 18.82C22.4996 20.786 23.2696 22.864 23.7876 25.012C23.9336 25.62 24.2456 26.176 24.6876 26.618L26.2816 28.212L29.1936 25.3H29.1956Z"
            fill="black" data-sentry-element="path" data-sentry-source-file="LogoFull.tsx"></path>
        <path
            d="M18.6737 31.9999H20.3897V14.8379H18.6737V19.2999L17.8097 21.9719C17.1297 24.0739 16.2057 26.0879 15.0537 27.9719C14.7277 28.5059 14.5557 29.1199 14.5557 29.7439V31.9999H18.6757H18.6737Z"
            fill="black" data-sentry-element="path" data-sentry-source-file="LogoFull.tsx"></path>
        <path
            d="M6.68446 29.23L7.89846 30.444L20.0345 18.308L18.8205 17.094L15.6645 20.25L13.1645 21.528C11.1985 22.534 9.12046 23.304 6.97246 23.822C6.36446 23.968 5.80846 24.28 5.36646 24.722L3.77246 26.316L6.68446 29.228V29.23Z"
            fill="black" data-sentry-element="path" data-sentry-source-file="LogoFull.tsx"></path>
        <path
            d="M0 18.784V20.5H17.162V18.784H12.7L10.028 17.92C7.926 17.24 5.912 16.316 4.028 15.164C3.494 14.838 2.88 14.666 2.256 14.666H0V18.786V18.784Z"
            fill="black" data-sentry-element="path" data-sentry-source-file="LogoFull.tsx"></path>
        <path
            d="M2.83998 6.78602L1.62598 8.00002L13.762 20.136L14.976 18.922L11.82 15.766L10.542 13.266C9.53598 11.3 8.76598 9.22202 8.24798 7.07402C8.10198 6.46602 7.78998 5.91002 7.34798 5.46802L5.75398 3.87402L2.84198 6.78602H2.83998Z"
            fill="black" data-sentry-element="path" data-sentry-source-file="LogoFull.tsx"></path>
        <path
            d="M17.81 11.5759H14.114L11.5 14.1899V17.8859L14.114 20.4999H17.81L20.424 17.8859V14.1899L17.81 11.5759Z"
            fill="black" data-sentry-element="path" data-sentry-source-file="LogoFull.tsx"></path>
        <path
            d="M52.5177 16.3939L46.4277 7.12793H48.9997L53.5937 14.1879L58.1877 7.12793H60.7597L54.6697 16.3939V25.7899H52.5177V16.3939Z"
            fill="black" data-sentry-element="path" data-sentry-source-file="LogoFull.tsx"></path>
        <path
            d="M62.2042 24.74L60.8922 22.798L60.3682 20.436V17.338L60.8922 14.976L62.2042 13.034L64.8542 11.748H67.6362L70.2862 13.034L71.5982 14.976L72.1222 17.338V20.436L71.5982 22.798L70.2862 24.74L67.6362 26H64.8542L62.2042 24.74ZM67.2702 23.874L68.8182 23.112L69.6062 21.93L69.9482 20.172V17.548L69.6062 15.842L68.7922 14.688L67.2702 13.9H65.2222L63.6482 14.688L62.8862 15.842L62.5442 17.548V20.172L62.8862 21.93L63.6742 23.112L65.2222 23.874H67.2702Z"
            fill="black" data-sentry-element="path" data-sentry-source-file="LogoFull.tsx"></path>
        <path
            d="M78.1616 25.318L76.7176 23.244V14.452H74.2236V12.3H76.7176V7.46997H78.8956V12.3H82.5176V14.452H78.8956V22.536L79.5516 23.48L80.4956 23.848H81.2296L83.0936 23.376L83.6456 25.45L81.2056 26.002H79.9976L78.1596 25.32L78.1616 25.318Z"
            fill="black" data-sentry-element="path" data-sentry-source-file="LogoFull.tsx"></path>
        <path
            d="M88.5034 25.318L87.0594 23.244V14.452H84.5654V12.3H87.0594V7.46997H89.2374V12.3H92.8594V14.452H89.2374V22.536L89.8934 23.48L90.8374 23.848H91.5714L93.4354 23.376L93.9874 25.45L91.5474 26.002H90.3394L88.5014 25.32L88.5034 25.318Z"
            fill="black" data-sentry-element="path" data-sentry-source-file="LogoFull.tsx"></path>
        <path
            d="M98.4234 25.448L97.1634 24.714L95.6934 22.588V21.066L96.0614 19.282L98.0034 17.34L100.601 16.684H102.281L104.039 17.262L104.669 17.708V15.714L104.381 14.926L103.279 14.218L101.993 13.904H100.129L99.0014 14.272L98.1874 14.796L97.6894 15.294L96.1934 13.746L96.9274 13.064L98.1874 12.25L99.8674 11.752H102.307L104.197 12.224L106.139 13.536L106.847 15.32V23.272L107.871 24.742L106.113 26.002L104.853 24.112L104.249 24.794L101.835 26.002H100.207L98.4234 25.45V25.448ZM101.363 23.846L103.331 23.112L104.407 21.984L104.669 21.17V20.198L104.117 19.62L103.303 19.2L102.017 18.832H100.835L99.1034 19.304L98.0794 20.328L97.8694 21.246V21.954L98.6834 23.108L99.2874 23.476L100.521 23.844H101.361L101.363 23.846Z"
            fill="black" data-sentry-element="path" data-sentry-source-file="LogoFull.tsx"></path>
        <path d="M118.118 7.12793H120.296V23.6379H128.8V25.7899H118.118V7.12793Z" fill="black"
            data-sentry-element="path" data-sentry-source-file="LogoFull.tsx"></path>
        <path
            d="M133.236 25.448L131.976 24.714L130.506 22.588V21.066L130.874 19.282L132.816 17.34L135.414 16.684H137.094L138.852 17.262L139.482 17.708V15.714L139.194 14.926L138.092 14.218L136.806 13.904H134.942L133.814 14.272L133 14.796L132.502 15.294L131.006 13.746L131.74 13.064L133 12.25L134.68 11.752H137.12L139.01 12.224L140.952 13.536L141.66 15.32V23.272L142.684 24.742L140.926 26.002L139.666 24.112L139.062 24.794L136.648 26.002H135.02L133.236 25.45V25.448ZM136.176 23.846L138.144 23.112L139.22 21.984L139.482 21.17V20.198L138.93 19.62L138.116 19.2L136.83 18.832H135.648L133.916 19.304L132.892 20.328L132.682 21.246V21.954L133.496 23.108L134.1 23.476L135.334 23.844H136.174L136.176 23.846Z"
            fill="black" data-sentry-element="path" data-sentry-source-file="LogoFull.tsx"></path>
        <path
            d="M149.166 25.422L148.432 24.95V25.79H146.254V6H148.432V13.35L149.01 12.746L150.612 11.748H152.974L155.704 13.008L157.488 15.422L158.04 17.286V20.41L157.488 22.326L155.704 24.74L153.08 26H150.744L149.17 25.422H149.166ZM152.736 23.874L154.284 23.034L155.544 21.354L155.858 20.12V17.574L155.544 16.392L154.284 14.686L152.63 13.898H150.898L149.192 15.106L148.43 16.234V22.192L148.982 22.874L149.98 23.53L151.056 23.872H152.736V23.874Z"
            fill="black" data-sentry-element="path" data-sentry-source-file="LogoFull.tsx"></path>
        <path
            d="M162.632 25.422L161.398 24.45L160.794 23.768L162.316 22.298L162.814 22.902L163.522 23.454L165.15 23.874H166.908L168.01 23.56L168.666 23.088L169.086 22.432V21.434L168.64 20.672L167.852 20.12L164.072 19.358L162.392 18.466L161.29 16.944V14.608L162.156 13.112L163.338 12.194L164.966 11.748H167.196L169.348 12.326L170.922 13.402L169.74 15.16L168.48 14.294L167.01 13.848H165.252L164.254 14.136L163.808 14.504L163.44 15.134V16.288L163.964 16.996L164.698 17.364L168.714 18.152L170.21 19.15L171.234 20.83V23.06L170.236 24.582L168.976 25.474L167.192 25.998H164.856L162.626 25.42L162.632 25.422Z"
            fill="black" data-sentry-element="path" data-sentry-source-file="LogoFull.tsx"></path>
    </g>
    <defs data-sentry-element="defs" data-sentry-source-file="LogoFull.tsx">
        <clipPath id="clip0_4_8941" data-sentry-element="clipPath"
            data-sentry-source-file="LogoFull.tsx">
            <rect width="171.24" height="32" fill="white" data-sentry-element="rect"
                data-sentry-source-file="LogoFull.tsx"></rect>
        </clipPath>
    </defs>
</svg>